<?xml version="1.0"?><svg width="640" height="480" xmlns="http://www.w3.org/2000/svg">
 <title>forest view logo 3</title>
 <metadata id="metadata7">image/svg+xml</metadata>
 <g>
  <title>Layer 1</title>
  <g id="layer1">
   <path fill="#3f7f00" id="path3444" d="m375.251129,330.682434c0.203461,-3.280182 0.077026,-8.455078 -0.280823,-11.499878c-0.612183,-5.208496 -0.770111,-5.497833 -2.6698,-4.891663c-1.110443,0.35434 -3.172638,0.615845 -4.582458,0.581116c-1.409821,-0.034729 -2.563416,0.190552 -2.563416,0.500641c0,0.310028 -1.243683,0.485291 -2.763763,0.389374c-1.999817,-0.12616 -2.919128,0.27121 -3.325348,1.437561c-0.649597,1.864594 -3.232361,2.194672 -3.232361,0.413147c0,-1.249969 -1.507782,-1.34494 -3.484833,-0.219482c-0.778778,0.443298 -0.98233,0.248413 -0.625519,-0.598846c0.396118,-0.940521 -0.016357,-1.162628 -1.641937,-0.884003c-1.194092,0.20462 -1.646637,0.144928 -1.005768,-0.132751c1.603149,-0.69455 1.47821,-2.117981 -0.136322,-1.553467c-0.718445,0.25119 -1.971252,-0.416138 -2.796448,-1.489563l-1.494934,-1.94455l0,1.887543c0,1.038116 -0.419434,1.887482 -0.932159,1.887482c-0.512726,0 -0.932129,-0.329163 -0.932129,-0.731506c0,-0.402283 -1.048676,-0.548828 -2.330383,-0.325623c-1.360321,0.236938 -2.330353,0.011139 -2.330353,-0.542419c0,-0.521576 0.787506,-0.948273 1.750153,-0.948273c0.962524,0 2.249939,-0.548676 2.86084,-1.21933c0.610931,-0.670593 2.335266,-1.464355 3.832031,-1.763885c4.376617,-0.875793 3.936707,-1.801483 -0.868652,-1.827698c-2.444153,-0.013336 -5.576263,-0.283203 -6.96051,-0.599701c-1.409119,-0.322205 -3.411224,-0.139069 -4.550018,0.416199c-1.526794,0.744446 -2.122711,0.74823 -2.3909,0.015289c-0.196503,-0.537018 -0.733704,-0.764374 -1.193848,-0.505249c-1.227875,0.691345 -7.459808,-0.524902 -6.90213,-1.347046c0.261139,-0.385101 1.830505,-0.500183 3.487366,-0.255676c2.661133,0.392731 3.130646,0.158539 4.026031,-2.008789c0.89267,-2.160614 0.800934,-2.467926 -0.769562,-2.575714c-1.381134,-0.094788 -1.551819,0.131714 -0.756805,1.004425c0.776947,0.853027 0.628571,1.2659 -0.610901,1.699188c-0.900421,0.31485 -1.785004,0.168396 -1.96579,-0.325439c-0.180603,-0.493835 -0.823273,-0.897888 -1.427948,-0.897888c-0.604767,0 -1.51358,-0.859894 -2.019714,-1.910858c-0.577026,-1.198303 -1.789093,-1.94519 -3.250458,-2.00296c-4.983551,-0.196899 -5.144104,-0.288879 -2.949829,-1.689148c1.86499,-1.190094 1.949188,-1.476715 0.686157,-2.33551c-0.79187,-0.538361 -1.707611,-2.220947 -2.034882,-3.739075c-0.738922,-3.426697 1.104889,-3.734222 4.228119,-0.705231c3.092743,2.999329 6.894745,4.258362 9.307373,3.082001c2.019257,-0.98468 2.649323,-2.589081 1.016693,-2.589081c-0.512726,0 -0.82724,-0.477722 -0.699127,-1.061584c0.128143,-0.583893 -0.29129,-0.966064 -0.932129,-0.849274c-0.640869,0.11676 -1.165192,-0.134064 -1.165192,-0.557465c0,-0.42337 -0.856812,-0.565613 -1.904022,-0.316132c-1.04718,0.249542 -1.797028,0.118195 -1.666168,-0.291779c0.130615,-0.410034 -0.290283,-1.613281 -0.935669,-2.67395c-1.524994,-2.506531 -0.823273,-3.400635 3.20993,-4.089996c2.125336,-0.363251 2.978607,-0.856323 2.397858,-1.385529c-0.581024,-0.529175 -1.579041,-0.491272 -2.804871,0.106445c-2.372467,1.15686 -3.889954,1.187531 -3.889954,0.078674c0,-0.467102 0.814148,-0.849274 1.809357,-0.849274c3.11264,0 3.11673,-1.678864 0.006927,-2.870209l-2.975891,-1.140015l2.677216,-0.613739l2.677063,-0.613739l-2.563416,-2.011414c-1.409821,-1.106293 -2.563385,-2.211304 -2.563385,-2.455566c0,-0.485291 5.215332,0.213928 7.457184,0.999756c0.768951,0.269531 1.677887,0.523132 2.019714,0.563446c0.341705,0.040344 0.935913,0.360016 1.320404,0.710297c1.447021,1.318359 9.70993,0.330688 9.70993,-1.160645c0,-0.412598 -0.943756,-0.756805 -2.097321,-0.764893c-1.153595,-0.008087 -3.064087,-0.943512 -4.245544,-2.078705c-1.334503,-1.282196 -2.719971,-1.864227 -3.657349,-1.536469c-1.184296,0.414032 -1.362152,0.175842 -0.826111,-1.106018c0.528656,-1.264099 0.431152,-1.405884 -0.430786,-0.626678c-1.3237,1.196716 -3.041992,-0.026245 -4.032867,-2.870239c-0.419189,-1.203339 -1.177582,-1.65155 -2.329895,-1.376984c-1.262939,0.300903 -1.828674,-0.164978 -2.168793,-1.785767c-0.456299,-2.174683 0.504639,-2.975677 1.611786,-1.343597c0.882874,1.301544 4.186035,1.008667 4.789795,-0.424622c0.295044,-0.700684 1.120789,-1.273926 1.835052,-1.273926c0.713989,0 1.298401,-0.382172 1.298401,-0.849274c0,-0.467102 -0.629242,-0.849274 -1.398193,-0.849274c-0.768982,0 -1.398224,-0.382202 -1.398224,-0.849274c0,-0.467102 -0.680573,-0.849274 -1.51236,-0.849274c-1.159485,0 -1.270111,-0.26593 -0.474152,-1.139709c1.3255,-1.455139 0.216431,-2.536591 -1.370575,-1.336563c-0.912689,0.690048 -1.164856,0.499832 -1.057556,-0.797775c0.077515,-0.937195 0.578156,-1.510956 1.11264,-1.275177c0.534332,0.23587 0.237579,-0.119354 -0.659637,-0.789398c-0.897217,-0.670013 -1.631256,-1.462708 -1.631256,-1.761536c0,-1.155014 2.157196,-0.441315 6.05896,2.004486c2.235474,1.401337 4.303558,2.547852 4.595642,2.547852c1.416656,0 0.237152,-2.499329 -2.291321,-4.855713c-1.959534,-1.825989 -2.458405,-2.773956 -1.631256,-3.100006c0.655182,-0.25827 0.037659,-0.252258 -1.372192,0.013336c-1.953705,0.368134 -2.563385,0.158112 -2.563385,-0.882965c0,-0.830505 0.822113,-1.392273 2.097321,-1.433014c1.153595,-0.036896 1.572998,-0.259827 0.932159,-0.495422c-0.640869,-0.235596 -1.165192,-1.033447 -1.165192,-1.773041c0,-0.739594 0.281158,-1.088562 0.624695,-0.775513c0.343628,0.313019 1.599274,-0.012665 2.790527,-0.723785c1.280457,-0.764435 3.74646,-1.199524 6.032898,-1.064545c2.494781,0.147308 4.016479,-0.157806 4.287964,-0.859802c0.231445,-0.59845 0.066925,-1.030914 -0.365601,-0.961029c-0.432617,0.069916 -1.415741,0.076019 -2.184723,0.01358c-1.242767,-0.100983 -1.242767,-0.205078 0,-0.93689c1.19809,-0.705444 1.167236,-0.825134 -0.215271,-0.836273c-1.684296,-0.01358 -3.203003,-3.504852 -2.180298,-5.012543c0.339539,-0.50058 2.509247,0.245056 5.281006,1.81485c3.908142,2.213501 4.848724,2.45697 5.55603,1.438385c1.233887,-1.776764 1.071625,-3.014404 -0.238525,-1.820679c-0.615234,0.560577 -1.715332,1.019165 -2.444489,1.019165c-1.061859,0 -1.09906,-0.249084 -0.187073,-1.250244c0.914063,-1.003494 0.819855,-1.540741 -0.476746,-2.72226c-1.040161,-0.947601 -1.239166,-1.586304 -0.558716,-1.792984c0.581329,-0.176559 1.056976,-0.697098 1.056976,-1.156723c0,-0.465668 -0.877289,-0.582077 -1.981049,-0.262909c-1.33313,0.385483 -1.772461,0.26535 -1.34314,-0.367401c0.362061,-0.533905 0.009796,-0.940247 -0.815521,-0.940247c-0.799225,0 -1.453186,-0.359589 -1.453186,-0.799179c0,-1.68454 1.870117,-1.72052 4.808319,-0.092514c2.74173,1.519165 3.269684,1.565704 5.134003,0.452774c1.142883,-0.682251 2.686737,-1.027603 3.430786,-0.767502c0.743958,0.260101 1.629669,0.064728 1.968079,-0.43425c0.338531,-0.498886 0.171143,-0.90715 -0.371857,-0.90715c-0.542877,0 -1.000427,-0.668808 -1.016815,-1.486237c-0.026733,-1.344803 -0.15976,-1.329361 -1.398224,0.162338c-1.629639,1.963242 -1.800903,1.114151 -0.30072,-1.492081c1.062988,-1.84671 1.058685,-1.847687 -0.951843,-0.220917c-2.016083,1.631256 -2.021667,1.629395 -3.134399,-1.056534c-0.670197,-1.617996 -1.684265,-2.607986 -2.543701,-2.483398c-0.882416,0.127991 -1.548889,-0.565842 -1.742676,-1.814133c-0.275818,-1.777039 -0.031281,-1.956787 2.023163,-1.487c3.306763,0.756104 5.647278,-0.162567 4.268951,-1.675659c-0.583038,-0.640106 -0.812897,-1.75087 -0.510773,-2.468277c0.444427,-1.055191 0.209015,-1.138382 -1.232666,-0.43544c-2.913086,1.420441 -3.855255,1.053406 -3.219513,-1.254272c0.373779,-1.356598 0.191956,-2.123199 -0.503296,-2.123199c-0.598511,0 -0.817657,-0.398941 -0.486877,-0.886444c0.33078,-0.487625 0.043457,-1.538574 -0.638458,-2.335526c-0.681824,-0.796951 0.645294,0.091507 2.949249,1.97435c2.303864,1.882858 5.546906,3.93364 7.206635,4.557281c1.659698,0.623627 2.788361,1.47168 2.508423,1.884567c-0.280121,0.412888 -0.169983,0.77652 0.244873,0.808029c0.414642,0.031525 2.117371,0.219391 3.783569,0.41748c1.819336,0.216309 3.02948,-0.012558 3.02948,-0.57283c0,-0.513107 0.543427,-0.742966 1.207611,-0.510788c0.724152,0.25322 0.974701,0.610046 1.060608,-0.428528c0.107758,-1.304382 0.265472,-0.169281 -0.541168,-0.579712c-1.626251,-0.82753 -4.523499,0.231598 -4.523499,-0.930801c0,-0.467056 -0.745667,-0.849258 -1.65686,-0.849258c-0.911316,0 -2.534058,-0.559753 -3.606171,-1.243912c-1.072083,-0.684158 -2.214081,-1.00264 -2.537781,-0.707748c-0.32373,0.294937 -0.588531,-0.100769 -0.588531,-0.879242c0,-0.778503 0,-1.702057 0,-2.052429c0,-1.429169 6.319214,-0.6082 10.020599,1.301849l3.961609,0.634521l0,-0.873581c0,-1.569168 -0.58316,-2.422318 -1.864288,-2.7276c-1.908905,-0.454788 -2.616882,-1.944611 -0.924164,-1.944611c0.585297,0 0.536957,-0.587967 -0.128357,-1.558426c-1.125031,-1.641541 -5.582092,-1.582474 -5.205444,0.06897c0.109467,0.479767 -0.954559,1.169159 -2.36438,1.532059c-1.612946,0.4151 -2.563416,0.333511 -2.563416,-0.220062c0,-0.552689 -0.489075,-0.51004 -1.315277,0.114731c-0.894928,0.676712 -1.507446,0.71109 -1.91687,0.107559c-0.33078,-0.487747 0.365845,-1.244461 1.548309,-1.681488c8.355988,-3.088303 10.05838,-3.89743 10.523407,-5.001511c0.408295,-0.96933 0.242371,-1.032242 -0.747681,-0.283508c-0.699799,0.529068 -1.545013,0.713516 -1.878418,0.409821c-0.333282,-0.303711 -2.787109,-0.481873 -5.452789,-0.395905c-4.717407,0.15213 -5.881805,-0.423157 -1.960114,-0.96843c3.075104,-0.427567 4.965454,-2.310089 4.52771,-4.509186c-0.349213,-1.755234 -0.19162,-1.873123 1.340179,-1.001541c0.954803,0.543259 1.594299,1.197891 1.421112,1.454697c-0.173309,0.256851 1.138092,0.564194 2.914093,0.682922c1.776123,0.11879 3.015045,-0.099731 2.753326,-0.485519c-0.261597,-0.385803 0.092377,-1.699219 0.786713,-2.918671c1.075653,-1.888809 1.068573,-2.149368 -0.047668,-1.75914c-0.870148,0.304199 -1.310272,-0.143021 -1.310272,-1.331299c0,-0.984192 -0.580322,-1.789429 -1.289551,-1.789429c-0.709106,0 -1.491638,-0.704391 -1.738678,-1.565353c-0.42215,-1.47052 -0.235657,-1.45874 3.076935,0.194412c1.939392,0.967911 3.391907,1.958939 3.227814,2.202332c-0.164185,0.243408 1.161102,0.540176 2.944946,0.65947c2.953217,0.19751 3.111847,0.097198 1.773468,-1.122253c-0.808441,-0.736557 -1.469879,-1.600769 -1.469879,-1.920486c0,-0.319733 -1.260773,-1.089783 -2.801819,-1.711212c-1.563324,-0.630478 -2.530396,-1.529831 -2.187897,-2.034698c0.337616,-0.49765 0.025391,-1.32457 -0.693756,-1.83757c-0.719269,-0.513 -1.786011,-2.151932 -2.370758,-3.642044c-1.002014,-2.553299 -0.961182,-2.651199 0.710144,-1.700317c0.975281,0.554977 1.612579,1.391968 1.416199,1.860062c-0.196503,0.468048 0.847137,0.931137 2.319214,1.029129c1.789307,0.11908 2.676514,-0.223999 2.676514,-1.034943c0,-0.79718 0.54834,-1.021347 1.599396,-0.6539c1.293976,0.452393 1.229706,0.197662 -0.337036,-1.334488c-2.338562,-2.287048 -2.405243,-5.698578 -0.108093,-5.53392c0.871948,0.0625 1.838013,-0.611862 2.146942,-1.49855c0.308929,-0.886749 0.921906,-1.409332 1.362244,-1.161392c0.440369,0.247971 1.04538,0.089951 1.344635,-0.351166c0.299164,-0.441101 -0.300964,-1.04631 -1.333801,-1.345001c-1.032867,-0.29866 -1.877838,-1.166962 -1.877838,-1.92955c0,-1.07843 0.248627,-1.16008 1.11853,-0.367401c1.522461,1.387039 2.610046,1.280869 2.610046,-0.254791c0,-0.700638 0.458099,-1.273911 1.018188,-1.273911c0.559937,0 2.122925,-0.791779 3.473236,-1.759476c1.35022,-0.967712 2.596283,-1.373779 2.768677,-0.902374c0.434448,1.187363 -3.396667,4.536591 -4.486969,3.922653c-0.490448,-0.276138 -0.639038,0.090012 -0.332397,0.818268c0.30542,0.72493 0.09082,1.318039 -0.476654,1.318039c-0.567688,0 -1.031921,0.77211 -1.031921,1.71582c0,1.706024 0.022522,1.70546 3.961609,-0.098969c2.178925,-0.998108 4.654022,-2.368378 5.500397,-3.045059c1.102692,-0.88176 1.723541,-0.957809 2.191071,-0.268509c0.383606,0.565491 -0.141663,1.15097 -1.274872,1.420959c-1.059906,0.252518 -2.180969,1.18779 -2.491241,2.078339c-0.310211,0.890549 -0.909302,1.424713 -1.331329,1.187103c-0.878906,-0.494843 -2.007538,1.606216 -2.430267,4.524246c-0.158966,1.096512 -1.046631,2.498413 -1.972626,3.115372c-2.49115,1.659531 -1.078827,2.23941 1.958069,0.803909c1.444977,-0.683029 3.176361,-1.241898 3.847473,-1.241898c0.671021,0 2.510742,-0.98938 4.088165,-2.1987c2.703705,-2.072754 2.86792,-2.100342 2.86792,-0.481873c0,0.965073 -0.808136,1.9505 -1.845428,2.250443c-1.014862,0.293488 -1.748901,0.970688 -1.631256,1.504898c0.117767,0.534149 -0.409302,0.988571 -1.171326,1.009811c-1.411987,0.039337 -2.646027,3.01535 -1.246185,3.005829c0.422028,-0.002899 1.983307,-0.582962 3.469482,-1.289108c1.486053,-0.706131 2.919342,-1.085922 3.184814,-0.84404c0.265564,0.241928 -0.111511,0.445679 -0.837708,0.45282c-0.961273,0.00946 -1.016937,0.188919 -0.204712,0.659409c1.778381,1.030029 -0.154633,2.937012 -2.977264,2.937012c-2.363708,0 -2.50412,0.198349 -2.028931,2.866318c0.452423,2.540009 0.273193,2.866302 -1.574829,2.866302c-1.146851,0 -2.53244,-0.40744 -3.079071,-0.90538c-0.703552,-0.641022 -1.149139,-0.363831 -1.526123,0.94928c-0.501587,1.747559 -0.306793,1.82254 3.370728,1.298569c2.14682,-0.305893 5.457825,-1.250168 7.358185,-2.098389c2.986115,-1.332962 3.336121,-1.357529 2.579102,-0.180832c-1.457947,2.266113 -4.418701,5.183121 -5.260956,5.183121c-1.574707,0 -6.048279,4.45105 -5.226288,5.199951c1.29071,1.175919 8.852448,-1.543182 12.322968,-4.431152c2.194275,-1.826157 3.389862,-2.315048 4.093292,-1.674118c0.703552,0.640961 0.65097,0.905319 -0.179901,0.905319c-0.645508,0 -0.901093,0.40181 -0.567902,0.892822c0.333038,0.491058 -0.447998,1.78244 -1.735718,2.86972c-1.795349,1.516068 -2.086761,2.212997 -1.249725,2.989609c0.600433,0.556961 0.672119,0.909668 0.159393,0.783737c-2.087311,-0.512589 -5.126801,1.142761 -5.126801,2.792191c0,1.006592 -0.773743,1.905182 -1.864288,2.165009c-1.02536,0.244324 -1.864288,0.76976 -1.864288,1.16774c0,0.397934 -0.697998,0.479553 -1.551056,0.181259c-1.067108,-0.373016 -1.333466,-0.221375 -0.853851,0.485825c1.228546,1.81102 4.932465,0.033371 11.273376,-5.410492c1.088257,-0.934189 2.762421,-2.27182 3.720642,-2.972488c1.579803,-1.155182 1.685181,-1.135391 1.130798,0.212311c-0.336243,0.817459 -0.209259,1.486267 0.28244,1.486267c0.491547,0 0.186829,0.752289 -0.677277,1.671692c-2.311249,2.459427 -2.626892,5.96521 -0.539917,5.99762c1.485596,0.023041 1.464111,0.13092 -0.201172,1.0103c-1.02536,0.541428 -1.961029,0.816467 -2.079346,0.61116c-0.118347,-0.205383 -0.87619,0.486526 -1.684082,1.537491c-0.841888,1.095078 -2.441406,1.910858 -3.746552,1.910858c-2.939362,0 -2.915588,1.161148 0.049042,2.391769c1.562653,0.648682 3.093323,0.700333 4.660736,0.157379c1.423828,-0.493179 2.334106,-0.500519 2.334106,-0.01889c0,0.43428 1.029572,-0.148376 2.287933,-1.294907c1.258392,-1.14653 2.887482,-2.08461 3.619934,-2.08461c0.732574,0 1.55127,-0.764313 1.819336,-1.698563c0.62027,-2.160828 1.761108,-2.160828 3.242279,0c0.998138,1.456223 0.93042,1.700394 -0.474854,1.711563c-1.373871,0.01088 -1.417114,0.140976 -0.267059,0.803619c1.169189,0.67363 1.12674,0.876328 -0.286621,1.370468c-0.912354,0.318939 -1.442719,1.092819 -1.178711,1.71965c0.264099,0.626862 -0.134521,1.699692 -0.885742,2.384079c-0.9021,0.822021 -1.031586,1.432541 -0.381195,1.798752c1.249756,0.70372 -0.640839,2.951019 -2.482605,2.951019c-0.706268,0 -1.284088,0.405609 -1.284088,0.901291c0,0.591248 1.523285,0.69989 4.427704,0.315842c2.435272,-0.322021 4.101013,-0.27066 3.70163,0.11409c-0.710724,0.684769 -1.539795,0.896667 -6.265045,1.601318c-1.281708,0.191101 -2.54007,0.416199 -2.796448,0.500061c-0.256348,0.083878 -1.51474,0.13475 -2.796448,0.113159c-1.80011,-0.030411 -1.921295,0.065628 -0.531952,0.42218c2.9776,0.764282 4.178864,2.28125 2.761749,3.48735c-0.670441,0.570648 -1.917206,1.03746 -2.77063,1.03746c-1.192352,0 -1.311401,0.26387 -0.513519,1.13974c0.570984,0.626877 0.772064,1.382217 0.446747,1.678558c-0.325317,0.296371 0.095459,0.778931 0.934875,1.072403c0.839508,0.293549 1.29422,0.875778 1.010529,1.293976c-1.446899,2.133102 11.662201,-1.151886 13.576569,-3.40213c0.812225,-0.954712 5.740143,-3.630096 6.093323,-3.308197c0.186401,0.169739 -0.187866,1.251251 -0.831665,2.403351c-0.760559,1.361237 -1.805115,1.997345 -2.983063,1.816559c-1.761993,-0.270432 -1.760498,-0.241562 0.051788,1.034576c1.562195,1.100021 1.615997,1.3172 0.332825,1.339813c-1.649017,0.029068 -3.002167,2.237366 -2.145111,3.500778c0.288208,0.424942 -0.331696,0.772598 -1.377411,0.772598c-1.257935,0 -2.102356,0.728714 -2.49469,2.152863c-0.326111,1.184052 -1.787811,2.715759 -3.248169,3.403748c-1.718872,0.809891 -2.466919,1.697861 -2.12146,2.518204c0.293579,0.696976 0.718018,1.267197 0.943176,1.267197c1.572662,0 14.183746,-6.091156 15.615204,-7.542068c1.823334,-1.848282 5.215332,-2.466568 5.215332,-0.950638c0,0.467041 -0.943756,0.855118 -2.097351,0.862259c-1.532135,0.009491 -1.756409,0.209778 -0.832336,0.743271c1.395477,0.805618 0.649048,4.339355 -0.916687,4.339355c-0.508392,0 -0.66507,0.382202 -0.348297,0.849304c0.316772,0.467072 0.107086,0.849258 -0.466064,0.849258c-0.573151,0 -0.801422,0.354874 -0.507263,0.788559c0.294128,0.433731 -0.4151,0.911453 -1.576294,1.061615c-1.161102,0.150177 -2.111115,0.846268 -2.111115,1.546967c0,0.758362 -1.037292,1.38266 -2.563416,1.542572c-1.409821,0.147888 -2.563385,0.77002 -2.563385,1.38269c0,0.61264 -0.943756,1.713715 -2.097351,2.446869c-1.821045,1.157379 -1.875214,1.338837 -0.411102,1.377502c0.92749,0.024475 1.451233,0.391068 1.16394,0.814636c-0.811218,1.195831 3.390961,0.0009 6.14917,-1.74855c1.360809,-0.863159 2.752075,-1.569382 3.091614,-1.569382c0.339661,0 2.019836,-0.974548 3.733948,-2.16571c3.070313,-2.133606 4.749023,-1.785858 3.676117,0.761551c-0.300507,0.713333 -1.070831,1.113541 -1.712036,0.889389c-0.641083,-0.224197 -1.165741,0.182144 -1.165741,0.902893c0,0.720749 0.664154,1.340607 1.476044,1.377518c0.880249,0.039993 1.026703,0.233444 0.362976,0.479492c-0.611938,0.226868 -0.863068,1.005508 -0.55777,1.730331c0.467194,1.109207 0.237579,1.16301 -1.450592,0.339859c-2.027344,-0.988541 -2.945709,0.150681 -1.003235,1.244461c1.479919,0.833435 -2.453491,3.873398 -4.215057,3.257538c-0.796387,-0.278473 -1.448059,-0.071228 -1.448059,0.460571c0,0.531708 0.602753,1.17749 1.339417,1.434998c0.736542,0.257568 1.112152,1.007751 0.834503,1.667053c-0.27774,0.659271 -0.880493,0.987289 -1.339508,0.728821c-0.458893,-0.258423 -0.834412,0.126007 -0.834412,0.854156c0,2.384827 2.322418,1.39682 7.026154,-2.988937c4.95285,-4.618042 9.328308,-7.190781 10.155426,-5.97142c0.279816,0.41246 -0.115936,1.222168 -0.879242,1.799408c-1.813538,1.371338 -1.774506,4.989639 0.073975,6.850571c1.235168,1.243515 1.271576,1.749313 0.234863,3.261703c-0.674774,0.984467 -1.752106,1.606354 -2.393982,1.381866c-0.641998,-0.224335 -1.167114,-0.049774 -1.167114,0.387939c0,0.437836 -0.629242,0.57605 -1.398224,0.307159c-1.69873,-0.593872 -1.830383,0.635132 -0.233032,2.174835c0.959229,0.924591 0.816071,0.959869 -0.809601,0.199677c-2.264496,-1.058746 -3.152039,-0.55246 -3.152039,1.79834c0,1.364319 -0.442627,1.555389 -2.563385,1.106628c-1.702728,-0.360382 -2.132172,-0.28064 -1.27887,0.23761c1.628174,0.988708 0.518982,2.756927 -1.325073,2.112244c-0.954773,-0.333832 -1.210693,-0.082825 -0.832001,0.816315c0.488831,1.160645 0.910309,1.162842 3.972198,0.020111c1.884003,-0.703033 5.175629,-2.824005 7.31485,-4.713196l3.889465,-3.434998l-0.533752,3.721741c-0.293457,2.046936 -0.899048,3.851807 -1.345673,4.010742c-1.487183,0.529449 -3.616852,5.104187 -2.633606,5.657806c0.510895,0.287628 0.928741,0.838013 0.928741,1.223114c0,1.046051 -4.990509,1.737366 -6.012299,0.832855c-1.272827,-1.12677 -2.377045,-0.965393 -2.377045,0.347443c0,0.622253 1.510193,1.553711 3.355957,2.069824c3.748718,1.048248 7.520996,0.199799 9.46109,-2.127869c1.055145,-1.2659 1.165192,-1.237274 1.165192,0.302704c0,0.935394 -0.855255,2.53714 -1.900604,3.559448c-1.04538,1.022217 -1.569702,1.867401 -1.165192,1.878021c0.40451,0.01062 -0.621948,0.629059 -2.280975,1.374268c-1.659027,0.745148 -2.786102,1.694611 -2.504364,2.109802c0.790955,1.165955 -2.272888,1.898254 -3.634369,0.868774c-0.897095,-0.678284 -1.625122,-0.469727 -2.827728,0.809875c-0.890747,0.947815 -2.544067,1.656036 -3.673737,1.573792c-3.255585,-0.237152 -4.075439,0.099915 -2.05423,0.844757c1.123657,0.414063 3.045776,0.247314 4.838379,-0.419861c2.510712,-0.934509 3.148376,-0.915527 4.09317,0.121704c0.61557,0.675781 1.794067,1.043976 2.618927,0.818176c0.824738,-0.225739 2.65683,-0.591797 4.070984,-0.813507c1.414246,-0.22171 3.463348,-0.661011 4.553528,-0.976227c1.844391,-0.533325 1.80661,-0.363647 -0.542419,2.442322c-1.477417,1.764801 -3.058136,2.828949 -3.811096,2.565735c-1.732727,-0.605835 -4.635681,1.467682 -4.635681,3.311005c0,0.817505 -0.279236,1.390747 -0.620728,1.273956c-0.34137,-0.11676 -1.472626,0.682678 -2.513885,1.776581c-1.04129,1.093842 -2.305908,1.756409 -2.810455,1.472351c-1.57016,-0.884064 -2.345032,1.412781 -0.819489,2.429108c1.126495,0.750519 0.134613,0.944489 -4.518402,0.883789c-5.122131,-0.066925 -5.961792,0.134644 -5.961792,1.430664c0,0.992035 -0.478699,1.341217 -1.398224,1.019714c-0.768951,-0.26886 -2.132263,-0.200043 -3.029449,0.152924c-0.897217,0.352997 -2.575012,0.557587 -3.728607,0.454712c-3.391663,-0.30246 -2.401825,1.384308 1.398224,2.382935l3.495544,0.91864l-4.427704,-0.393433c-2.566254,-0.227936 -4.427704,-0.043121 -4.427704,0.439758c0,0.45813 0.943756,0.859833 2.097351,0.89267c1.992645,0.056732 2.004242,0.09433 0.233032,0.75296c-1.375793,0.511505 -2.488434,0.162079 -4.245636,-1.333649c-2.412537,-2.053284 -4.266815,-2.733185 -3.211548,-1.177551c0.316772,0.467072 0.131897,0.849304 -0.411102,0.849304c-2.271881,0 -0.750885,1.530609 2.042358,2.055237c2.65387,0.498535 2.820221,0.678467 1.341675,1.451141c-0.928406,0.485107 -2.396484,0.598328 -3.262512,0.251587c-0.866028,-0.346771 -1.858612,-0.579163 -2.20578,-0.516418c-0.347046,0.062805 -1.183502,-1.023041 -1.858826,-2.412964c-1.530548,-3.150452 -2.426636,-3.211639 -2.808044,-0.19162c-0.19754,1.564178 -0.756683,2.237244 -1.693176,2.038086c-5.176971,-1.101074 -5.593658,-0.895538 -5.574432,2.749695c0.018066,3.412415 1.319,13.058868 2.389526,17.718018c0.512146,2.229034 0.372528,2.33551 -3.063507,2.33551l-3.600128,0l0.369934,-5.963837zm-14.757233,-17.817535c0.898376,-0.085114 1.000427,-0.279877 0.2854,-0.544922c-0.611969,-0.226807 -0.85376,-1.027374 -0.537201,-1.778931c0.453094,-1.076019 0.194336,-1.227417 -1.217651,-0.712341c-2.984283,1.088715 -4.531464,1.163147 -5.754669,0.276978c-0.780487,-0.565552 -1.165192,-0.550079 -1.165192,0.046783c0,0.490082 -0.734039,1.051849 -1.631256,1.248535c-1.408234,0.308685 -1.352142,0.462311 0.410187,1.123901c1.791595,0.672455 4.927795,0.783447 9.610382,0.339996zm-23.30368,-13.809753c0,-0.411163 -0.629242,-0.174347 -1.398224,0.526337c-0.768982,0.700592 -1.384888,1.7789 -1.368622,2.396149c0.032776,1.239746 2.766846,-1.648132 2.766846,-2.922485zm13.050079,-4.076691c0,-0.437805 -0.464264,-0.79599 -1.031952,-0.79599c-0.577698,0 -0.781708,-0.654114 -0.463684,-1.486237c0.526031,-1.376221 0.471985,-1.373749 -0.729034,0.033539c-1.064606,1.247223 -1.524628,1.323364 -2.565796,0.424652c-1.476044,-1.274231 -8.259613,-1.775269 -8.259613,-0.610107c0,0.433868 -0.629242,0.788879 -1.398224,0.788879c-1.944733,0 -1.757904,1.506714 0.233032,1.87915c3.644745,0.681732 14.215271,0.507843 14.215271,-0.233887zm9.321472,0.053284c0,-1.098846 -1.584961,-1.098846 -2.330383,0c-0.316772,0.467102 0.07785,0.849274 0.877197,0.849274c0.799133,0 1.453186,-0.382172 1.453186,-0.849274zm13.509521,-1.688782c0.326569,-0.481476 -0.047546,-0.62381 -0.877167,-0.333771c-1.614868,0.564575 -1.910278,1.173279 -0.569397,1.173279c0.48233,0 1.133331,-0.377777 1.446564,-0.839508zm39.622894,-1.708313c0,-0.467102 -0.629242,-0.849274 -1.398224,-0.849274c-0.768982,0 -1.398224,0.382172 -1.398224,0.849274c0,0.467102 0.629242,0.849274 1.398224,0.849274c0.768982,0 1.398224,-0.382172 1.398224,-0.849274zm-76.436096,-1.174866c0,-0.179077 -0.839539,-0.525604 -1.86557,-0.77005c-1.026001,-0.244476 -1.630554,-0.097992 -1.343262,0.325562c0.501801,0.739655 3.208832,1.114624 3.208832,0.444489zm76.902161,-1.372955c-0.738129,-1.088257 -1.398224,-1.088257 -1.398224,0c0,0.467072 0.444214,0.849274 0.987122,0.849274c0.542969,0 0.727875,-0.382202 0.411102,-0.849274zm-72.70752,-3.397095c0.321228,-0.473572 -0.376068,-0.843536 -1.576294,-0.836273c-1.731506,0.010468 -1.878967,0.17395 -0.754059,0.836273c1.734467,1.02124 1.637634,1.02124 2.330353,0zm4.194672,-0.899414c0,-0.494659 -0.419434,-0.663177 -0.932159,-0.374512c-1.194427,0.672577 -1.194427,1.273926 0,1.273926c0.512726,0 0.932159,-0.404755 0.932159,-0.899414zm-15.14035,-0.932983c0.784698,-0.714935 1.41449,-0.729584 2.308075,-0.053925c0.905304,0.68454 2.057739,0.563477 4.376709,-0.459778c1.731293,-0.763947 2.650116,-1.540192 2.041809,-1.724945c-0.608398,-0.184784 -1.753113,0.153351 -2.543945,0.751373c-1.156067,0.874054 -1.580719,0.876953 -2.165497,0.014771c-0.573486,-0.845428 -1.579132,-0.863586 -4.749817,-0.085693c-2.962585,0.726807 -3.673187,1.188171 -2.696991,1.751068c1.737518,1.001984 2.143188,0.979187 3.429657,-0.192871zm95.620361,-3.210876c0.893341,-0.813812 -0.913849,-0.857147 -6.141235,-0.147308c-0.384491,0.052185 -0.699127,0.500061 -0.699127,0.995209c0,1.108185 5.432556,0.434845 6.840363,-0.8479zm-91.206299,-3.439758c0.326569,-0.481445 -0.047577,-0.623779 -0.877197,-0.333771c-1.614868,0.564606 -1.910278,1.173309 -0.569397,1.173309c0.482361,0 1.133331,-0.377777 1.446594,-0.839539zm4.667328,-11.899597c-0.738129,-1.088257 -1.398224,-1.088257 -1.398224,0c0,0.467072 0.444244,0.849274 0.987122,0.849274c0.542969,0 0.727875,-0.382202 0.411102,-0.849274zm1.284546,-4.164429c1.668243,-0.962646 0.364685,-2.899261 -1.510193,-2.243744c-0.789337,0.27594 -2.464294,-0.112549 -3.722107,-0.863403c-1.432007,-0.854919 -3.166138,-1.164124 -4.639343,-0.827209c-2.843658,0.650269 -2.289734,1.261047 2.82309,3.113007c4.687469,1.697876 5.388153,1.779541 7.048553,0.82135zm93.32843,-4.388977c0,-1.473175 -2.890656,-3.713989 -3.5802,-2.775299c-0.33783,0.460175 -1.348511,1.083435 -2.245728,1.38501c-2.921814,0.982178 -1.720001,2.300201 2.097351,2.300201c2.050659,0 3.728577,-0.409454 3.728577,-0.909912zm-88.379242,-3.067322c-0.672943,-0.245331 -1.476837,-0.215179 -1.786682,0.067017c-0.309723,0.282257 0.240875,0.482941 1.22345,0.446106c1.085968,-0.040741 1.306824,-0.242035 0.563232,-0.513123zm4.485962,-10.460449c-1.159729,-0.682892 -1.080414,-0.827698 0.466064,-0.849274c1.509857,-0.021057 1.604401,-0.17572 0.497253,-0.813721c-0.85318,-0.491669 -1.785309,-0.471283 -2.480347,0.054291c-0.690094,0.521881 -1.32016,0.537201 -1.657074,0.040375c-0.299042,-0.440826 0.082947,-1.02066 0.849091,-1.288483c0.766113,-0.267853 1.386383,-0.976685 1.378632,-1.575226c-0.009552,-0.725037 -0.242798,-0.784119 -0.699097,-0.177032c-1.031586,1.372559 -3.812225,2.098358 -4.448059,1.161011c-0.308136,-0.454285 -0.950836,-0.606171 -1.42804,-0.337402c-0.477234,0.268738 -0.867737,0.088379 -0.867737,-0.400787c0,-0.489166 -0.943756,-0.798309 -2.097351,-0.687073c-1.499023,0.144623 -2.060455,-0.221649 -1.967834,-1.283936c0.075226,-0.863312 -0.510803,-1.480774 -1.398224,-1.473206c-6.885864,0.058624 -2.194855,5.654633 6.100037,7.276886c7.014221,1.371826 9.689362,1.493866 7.752686,0.353577zm54.064575,-10.191315c0,-0.467072 -0.419434,-0.849274 -0.932159,-0.849274c-0.512726,0 -0.932159,0.382202 -0.932159,0.849274c0,0.467102 0.419434,0.849274 0.932159,0.849274c0.512726,0 0.932159,-0.382172 0.932159,-0.849274zm-57.793152,-0.849274c1.130707,-0.66571 0.996887,-0.825745 -0.699127,-0.836273c-1.153564,-0.007141 -2.097321,0.369171 -2.097321,0.836273c0,1.064087 0.989136,1.064087 2.796448,0zm10.769989,-11.114563c0.96048,-1.416077 -1.200012,-3.040009 -2.485931,-1.868408c-1.075623,0.980011 -0.402344,2.791656 1.037415,2.791656c0.452179,0 1.103973,-0.415466 1.448517,-0.923248zm4.610443,-1.624573c-0.738159,-1.088226 -1.398224,-1.088226 -1.398224,0c0,0.467102 0.444214,0.849274 0.987091,0.849274c0.542999,0 0.727905,-0.382172 0.411133,-0.849274zm37.751953,-5.095642c0,-0.467102 -0.444214,-0.849304 -0.987091,-0.849304c-0.542999,0 -0.727905,0.382202 -0.411102,0.849304c0.738129,1.088226 1.398193,1.088226 1.398193,0zm-36.819824,-3.397125c0.316803,-0.467072 0.156586,-0.849274 -0.356018,-0.849274c-0.512726,0 -1.191498,0.382202 -1.50827,0.849274c-0.316772,0.467102 -0.156555,0.849274 0.356049,0.849274c0.512726,0 1.191467,-0.382172 1.50824,-0.849274zm-5.359833,-1.061584c-0.439911,-1.202271 -1.938843,-1.07016 -2.40799,0.212311c-0.171021,0.467102 0.388245,0.849274 1.242798,0.849274c0.854553,0 1.378876,-0.477722 1.165192,-1.061584zm-3.495544,-1.535156c0,-1.352142 -2.081543,-1.854645 -2.886475,-0.696838c-1.271118,1.828552 -0.997101,2.322174 1.022156,1.841095c1.02536,-0.244293 1.864319,-0.759186 1.864319,-1.144257zm41.99295,-5.493195c3.462311,-1.631256 3.455475,-1.901489 -0.036774,-1.434509c-1.532837,0.204956 -2.575226,0.684692 -2.316589,1.066101c0.258759,0.381378 -0.479614,0.859802 -1.640808,1.063171c-1.478577,0.258911 -1.608398,0.404297 -0.433533,0.485321c0.922699,0.063599 2.9151,-0.467407 4.427704,-1.180084zm-11.232086,-9.370331c0,-0.205994 -0.654053,-0.374512 -1.453186,-0.374512c-0.799347,0 -1.18988,0.388397 -0.867737,0.863098c0.532074,0.784393 2.320923,0.407806 2.320923,-0.488586zm-12.11792,-12.541901c0,-0.792938 -0.897797,-1.000031 -3.02948,-0.698914c-2.93335,0.414368 -2.955536,0.44751 -0.699127,1.042206c3.457672,0.911285 3.728607,0.886353 3.728607,-0.343292zm-37.033539,132.251434c0.309845,-0.282196 1.11377,-0.312347 1.786713,-0.067017c0.743591,0.271088 0.522736,0.472382 -0.563263,0.513123c-0.982544,0.036835 -1.533173,-0.163849 -1.22345,-0.446106zm16.573059,-136.98996c-1.161774,-1.977844 -1.22879,-2.627441 -0.270935,-2.627441c1.219116,0 3.044617,3.283356 2.116119,3.806152c-0.47644,0.26828 -1.306763,-0.262115 -1.845184,-1.178711zm13.935425,-25.675659c0,-0.402313 0.385193,-0.731506 0.855927,-0.731506c0.470734,0 1.519409,-0.231964 2.330353,-0.515503c0.810974,-0.283508 1.474487,-0.136993 1.474487,0.325623c0,0.462646 -1.048676,1.023773 -2.330383,1.247009c-1.281708,0.223236 -2.330383,0.076721 -2.330383,-0.325623zm8.270447,-6.410797c-1.134918,-1.271149 -1.068817,-1.366821 0.584961,-0.847229c1.789764,0.562347 1.795349,0.536957 0.136322,-0.636017c-1.589508,-1.123749 -1.458984,-1.209076 1.627045,-1.06366c1.845306,0.086914 3.356964,0.253632 3.359253,0.370392c0.006714,0.338501 -3.687408,3.609436 -4.076324,3.609436c-0.193573,0 -0.927612,-0.644836 -1.631256,-1.432922zm-0.281281,-5.961914c-1.554138,-1.940826 -1.585754,-2.171478 -0.233063,-1.698517c0.860931,0.300995 1.565399,0.177094 1.565399,-0.27533c0,-0.452454 0.470825,-0.822632 1.046265,-0.822632c0.746002,0 0.76123,0.312958 0.053253,1.090057c-1.233582,1.354309 -0.293701,2.825012 2.162994,3.384216c1.535553,0.349518 1.453522,0.437012 -0.466095,0.496155c-1.504272,0.046387 -2.967896,-0.724274 -4.128754,-2.17395zm0.549469,-5.548065c-1.457855,-1.328156 -1.363739,-2.344086 0.21698,-2.344086c1.477203,0 2.733521,2.276764 1.606567,2.911377c-0.408264,0.229858 -1.228912,-0.025421 -1.823547,-0.567291zm0.502716,-6.879776c-0.263641,-0.626266 -0.105255,-1.677223 0.352051,-2.33551c0.605225,-0.871078 0.835541,-0.561127 0.846008,1.138596c0.015472,2.53614 -0.44162,2.992821 -1.198059,1.196915z"/>
  </g>
  <g id="svg_1">
   <path id="svg_2" fill="#007f00" d="m302.924316,329.732697c0.239655,-4.352539 0.090729,-11.219269 -0.330811,-15.25946c-0.7211,-6.911255 -0.907135,-7.295197 -3.144836,-6.490906c-1.308044,0.470215 -3.737152,0.8172 -5.397827,0.771118c-1.660706,-0.046051 -3.019531,0.252838 -3.019531,0.664307c0,0.411407 -1.464996,0.643921 -3.255554,0.516693c-2.355652,-0.167389 -3.438538,0.359863 -3.917023,1.907532c-0.765198,2.474152 -3.807495,2.91217 -3.807495,0.548187c0,-1.65863 -1.776093,-1.784607 -4.10495,-0.291199c-0.917358,0.588226 -1.157104,0.329559 -0.736755,-0.794647c0.466553,-1.247986 -0.019348,-1.542725 -1.934143,-1.173004c-1.406555,0.271545 -1.939636,0.192322 -1.184723,-0.176178c1.888397,-0.9216 1.741241,-2.810364 -0.160583,-2.06131c-0.846283,0.333344 -2.321991,-0.552155 -3.294037,-1.976532l-1.760925,-2.580292l0,2.504669c0,1.377502 -0.494049,2.504547 -1.098022,2.504547c-0.603943,0 -1.098022,-0.436798 -1.098022,-0.970673c0,-0.533783 -1.235229,-0.728271 -2.744995,-0.432098c-1.602356,0.314423 -2.744995,0.014801 -2.744995,-0.719727c0,-0.692047 0.927612,-1.25827 2.061523,-1.25827c1.13385,0 2.650269,-0.728088 3.369904,-1.617981c0.719635,-0.889862 2.750793,-1.943085 4.513885,-2.340546c5.155334,-1.16214 4.637177,-2.390442 -1.023193,-2.425201c-2.879089,-0.0177 -6.568542,-0.375793 -8.199036,-0.795746c-1.659882,-0.427551 -4.018219,-0.18457 -5.359619,0.552216c-1.798492,0.987885 -2.500427,0.992889 -2.816345,0.020325c-0.231476,-0.712585 -0.864258,-1.014252 -1.406311,-0.670471c-1.44635,0.917389 -8.78714,-0.696442 -8.130219,-1.787384c0.307602,-0.511017 2.156204,-0.663696 4.107864,-0.339264c3.134659,0.521118 3.687698,0.210327 4.742416,-2.665527c1.051483,-2.866974 0.943451,-3.27475 -0.906464,-3.417786c-1.626923,-0.125763 -1.827972,0.174805 -0.891479,1.332825c0.915192,1.131836 0.740417,1.679718 -0.719604,2.254639c-1.060638,0.417816 -2.102615,0.22348 -2.315582,-0.431793c-0.212738,-0.655304 -0.969757,-1.191437 -1.682022,-1.191437c-0.712387,0 -1.782913,-1.141022 -2.379089,-2.535583c-0.679688,-1.589996 -2.107437,-2.581116 -3.828842,-2.657715c-5.870285,-0.261353 -6.059418,-0.383362 -3.474686,-2.241425c2.196808,-1.579163 2.29599,-1.959473 0.808212,-3.09906c-0.932739,-0.714325 -2.011444,-2.947021 -2.396942,-4.961426c-0.870392,-4.547028 1.301483,-4.955048 4.980469,-0.935791c3.643036,3.979858 8.121521,5.650543 10.96347,4.089569c2.37854,-1.306549 3.120697,-3.435486 1.197571,-3.435486c-0.603943,0 -0.974426,-0.633911 -0.823486,-1.408691c0.150909,-0.77475 -0.34314,-1.281921 -1.098022,-1.126923c-0.754868,0.154968 -1.372498,-0.177887 -1.372498,-0.739685c0,-0.561798 -1.009277,-0.75058 -2.242813,-0.419525c-1.233505,0.331146 -2.116791,0.15683 -1.962662,-0.387177c0.153885,-0.544037 -0.341904,-2.140717 -1.102173,-3.548126c-1.79631,-3.325897 -0.969727,-4.51236 3.781128,-5.427124c2.50351,-0.481964 3.508606,-1.13623 2.824493,-1.83844c-0.684372,-0.702179 -1.860001,-0.651917 -3.303925,0.141174c-2.794617,1.535095 -4.582123,1.575806 -4.582123,0.104431c0,-0.619812 0.95903,-1.126892 2.131302,-1.126892c3.666504,0 3.671326,-2.227722 0.008179,-3.808533l-3.505417,-1.512756l3.153549,-0.814392l3.153442,-0.814377l-3.019531,-2.669006c-1.660675,-1.467957 -3.019516,-2.934219 -3.019516,-3.258347c0,-0.643921 6.143326,0.283859 8.784058,1.326614c0.905792,0.357681 1.976471,0.694168 2.37912,0.747681c0.402527,0.053513 1.102448,0.477676 1.555359,0.94249c1.704468,1.749344 11.437683,0.438766 11.437683,-1.5401c0,-0.547485 -1.111694,-1.004181 -2.470551,-1.014908c-1.358826,-0.010742 -3.609283,-1.252014 -5.000946,-2.758331c-1.57196,-1.701401 -3.203949,-2.473663 -4.308136,-2.038757c-1.39502,0.549332 -1.604523,0.233276 -0.973083,-1.467621c0.622711,-1.677368 0.507843,-1.865479 -0.507446,-0.831558c-1.559235,1.587952 -3.583298,-0.034821 -4.750443,-3.808594c-0.49379,-1.596725 -1.387131,-2.191498 -2.744492,-1.827164c-1.487671,0.399307 -2.154068,-0.218903 -2.554688,-2.369583c-0.537491,-2.885605 0.594421,-3.948532 1.898575,-1.782867c1.039978,1.727066 4.930862,1.33844 5.642044,-0.563446c0.347534,-0.929733 1.320251,-1.690384 2.16156,-1.690384c0.841064,0 1.52948,-0.507095 1.52948,-1.126892c0,-0.619843 -0.741211,-1.126938 -1.647034,-1.126938c-0.905762,0 -1.647003,-0.507156 -1.647003,-1.126953c0,-0.619797 -0.801666,-1.126892 -1.781448,-1.126892c-1.365799,0 -1.496078,-0.35289 -0.558517,-1.512314c1.561386,-1.930862 0.254929,-3.365845 -1.614441,-1.773483c-1.075089,0.915619 -1.372116,0.663208 -1.245712,-1.058624c0.091278,-1.243607 0.68103,-2.004913 1.310577,-1.692017c0.629425,0.312943 0.279877,-0.158417 -0.776978,-1.047501c-1.056854,-0.889084 -1.921524,-1.940887 -1.921524,-2.337433c0,-1.532578 2.541016,-0.585617 7.137054,2.659805c2.63324,1.859421 5.069305,3.380783 5.413361,3.380783c1.668762,0 0.279358,-3.316422 -2.699036,-6.443176c-2.308228,-2.422913 -2.895813,-3.680801 -1.921509,-4.113419c0.77179,-0.342758 0.044373,-0.334793 -1.616318,0.017654c-2.301376,0.488525 -3.019531,0.209793 -3.019531,-1.171631c0,-1.102036 0.968399,-1.847427 2.470535,-1.901489c1.358826,-0.048996 1.852875,-0.344772 1.097992,-0.657394c-0.754868,-0.312622 -1.372498,-1.371338 -1.372498,-2.352676c0,-0.9814 0.331192,-1.444473 0.73584,-1.029083c0.404785,0.41539 1.88385,-0.016785 3.287048,-0.960419c1.508301,-1.014313 4.413086,-1.59166 7.106384,-1.412537c2.93869,0.195465 4.73114,-0.209412 5.050934,-1.1409c0.272614,-0.794113 0.078827,-1.367966 -0.430664,-1.275223c-0.509583,0.092804 -1.667633,0.100876 -2.573456,0.01799c-1.463898,-0.133942 -1.463898,-0.272079 0,-1.243118c1.411255,-0.936066 1.374939,-1.09491 -0.253571,-1.10968c-1.983978,-0.018036 -3.772919,-4.650711 -2.568237,-6.651321c0.399933,-0.6642 2.955719,0.325195 6.220673,2.408203c4.603516,2.937164 5.711456,3.260193 6.544617,1.90863c1.453461,-2.357635 1.262329,-3.999863 -0.280945,-2.415894c-0.724731,0.74382 -2.020538,1.352325 -2.879456,1.352325c-1.250793,0 -1.294617,-0.33049 -0.220337,-1.658951c1.07666,-1.331558 0.965698,-2.044479 -0.561584,-3.612213c-1.22522,-1.257385 -1.459656,-2.104965 -0.658142,-2.379166c0.684814,-0.234314 1.245056,-0.924988 1.245056,-1.534866c0,-0.617935 -1.033386,-0.772369 -2.333557,-0.348862c-1.570313,0.51152 -2.08783,0.352081 -1.582123,-0.487534c0.426483,-0.70845 0.011536,-1.24765 -0.960602,-1.24765c-0.941467,0 -1.711792,-0.477127 -1.711792,-1.06041c0,-2.235306 2.202881,-2.283051 5.66391,-0.122772c3.229553,2.015762 3.851471,2.07756 6.047516,0.600769c1.346191,-0.905273 3.164795,-1.363602 4.041229,-1.018448c0.876312,0.345154 1.919647,0.085938 2.318268,-0.576141c0.398743,-0.662079 0.201599,-1.203781 -0.438049,-1.203781c-0.639465,0 -1.178406,-0.887451 -1.197693,-1.972107c-0.031494,-1.784454 -0.188202,-1.763901 -1.647034,0.215408c-1.919617,2.605087 -2.121338,1.478409 -0.354248,-1.979919c1.252136,-2.450378 1.24707,-2.451691 -1.121216,-0.293106c-2.374817,2.164581 -2.381348,2.162079 -3.692078,-1.401932c-0.789459,-2.146957 -1.984009,-3.460617 -2.996338,-3.295258c-1.039429,0.169815 -1.824493,-0.750854 -2.052734,-2.407242c-0.32489,-2.358002 -0.036865,-2.596527 2.383118,-1.97319c3.895142,1.003342 6.65213,-0.215668 5.028564,-2.223419c-0.686768,-0.84938 -0.95755,-2.323257 -0.601685,-3.275192c0.52356,-1.400208 0.246216,-1.510605 -1.451965,-0.577835c-3.431458,1.884796 -4.541229,1.397797 -3.792389,-1.664322c0.440308,-1.80011 0.226105,-2.817322 -0.592804,-2.817322c-0.705017,0 -0.963196,-0.529343 -0.573547,-1.17627c0.389648,-0.647018 0.051178,-2.04158 -0.752075,-3.09903c-0.803162,-1.05751 0.760101,0.121429 3.47403,2.619797c2.713806,2.498413 6.533905,5.219666 8.488922,6.04718c1.955017,0.827515 3.284515,1.952774 2.954803,2.500702c-0.330017,0.547821 -0.200256,1.030365 0.288422,1.072159c0.488434,0.041824 2.49411,0.291092 4.456787,0.554001c2.143066,0.287003 3.568542,-0.016647 3.568542,-0.760117c0,-0.680893 0.640137,-0.98587 1.422485,-0.677795c0.852997,0.335983 1.148132,0.809494 1.249329,-0.568619c0.126923,-1.73082 0.312714,-0.22464 -0.637451,-0.769257c-1.915619,-1.098038 -5.3284,0.307327 -5.3284,-1.235031c0,-0.619827 -0.878326,-1.126953 -1.951691,-1.126953c-1.073456,0 -2.984924,-0.742798 -4.247803,-1.650558c-1.262878,-0.907867 -2.608032,-1.33046 -2.98938,-0.939148c-0.381317,0.391373 -0.693237,-0.133713 -0.693237,-1.166687c0,-1.033035 0,-2.25853 0,-2.723434c0,-1.896393 7.443604,-0.807007 11.803619,1.727493l4.666534,0.841949l0,-1.15918c0,-2.082184 -0.686951,-3.214264 -2.196014,-3.619324c-2.248566,-0.6035 -3.08255,-2.580368 -1.088623,-2.580368c0.689484,0 0.632507,-0.780167 -0.151215,-2.067917c-1.325165,-2.178223 -6.575287,-2.099792 -6.131653,0.091537c0.128937,0.636581 -1.12439,1.551392 -2.785095,2.032928c-1.899933,0.550812 -3.019531,0.442551 -3.019531,-0.291977c0,-0.733414 -0.57605,-0.676804 -1.549316,0.152206c-1.054138,0.897934 -1.775665,0.943542 -2.257904,0.142731c-0.389648,-0.647247 0.430878,-1.651306 1.823792,-2.231216c9.842804,-4.097961 11.848114,-5.1716 12.395905,-6.636642c0.480896,-1.286209 0.285461,-1.36969 -0.880737,-0.37619c-0.824341,0.702087 -1.819946,0.946808 -2.212646,0.543808c-0.392578,-0.402985 -3.283051,-0.63942 -6.423065,-0.52536c-5.556793,0.201874 -6.928375,-0.561478 -2.308868,-1.284988c3.622253,-0.567368 5.848999,-3.065323 5.333374,-5.983353c-0.411377,-2.329109 -0.225708,-2.485519 1.578613,-1.32901c1.124695,0.720901 1.877991,1.589523 1.673981,1.930313c-0.204132,0.34079 1.340607,0.748611 3.432617,0.906189c2.092133,0.157608 3.551483,-0.132339 3.243225,-0.644272c-0.308136,-0.511978 0.108856,-2.25473 0.926727,-3.872849c1.267029,-2.50634 1.258728,-2.852051 -0.056152,-2.334221c-1.024994,0.403641 -1.543427,-0.189819 -1.543427,-1.766579c0,-1.305923 -0.683563,-2.37442 -1.519012,-2.37442c-0.835297,0 -1.75705,-0.934669 -2.048035,-2.07711c-0.497284,-1.951271 -0.277588,-1.935654 3.62439,0.258011c2.284485,1.284279 3.995453,2.59935 3.802185,2.922279c-0.19342,0.32299 1.367676,0.716759 3.468933,0.875099c3.478729,0.2621 3.665588,0.128922 2.08905,-1.489159c-0.952301,-0.977371 -1.731445,-2.124092 -1.731445,-2.54834c0,-0.424271 -1.485107,-1.44606 -3.300323,-2.270653c-1.841522,-0.836578 -2.980682,-2.029999 -2.577209,-2.699898c0.397675,-0.660339 0.029877,-1.757591 -0.81723,-2.438332c-0.847198,-0.68074 -2.10379,-2.855438 -2.792603,-4.83268c-1.180298,-3.3881 -1.132172,-3.51796 0.836517,-2.25621c1.148834,0.736412 1.899536,1.847031 1.668182,2.468132c-0.231445,0.621056 0.997925,1.235588 2.731903,1.365578c2.107697,0.158028 3.15274,-0.297188 3.15274,-1.373268c0,-1.0578 0.645935,-1.35527 1.884003,-0.867683c1.524231,0.600281 1.448517,0.262283 -0.397003,-1.77079c-2.7547,-3.034698 -2.833221,-7.561546 -0.127319,-7.343079c1.027069,0.082909 2.165039,-0.81189 2.528931,-1.98848c0.363892,-1.17662 1.085968,-1.870079 1.604675,-1.541061c0.518707,0.329033 1.231354,0.119331 1.583862,-0.465958c0.352386,-0.58532 -0.354523,-1.38842 -1.571136,-1.784752c-1.216644,-0.396248 -2.211975,-1.548439 -2.211975,-2.560349c0,-1.430969 0.292877,-1.539299 1.317566,-0.487511c1.793365,1.840508 3.074493,1.6996 3.074493,-0.338089c0,-0.929703 0.539612,-1.690399 1.199341,-1.690399c0.659546,0 2.500671,-1.050613 4.091248,-2.334702c1.590454,-1.284111 3.058258,-1.822891 3.261322,-1.19738c0.511749,1.575592 -4.001068,6.019722 -5.28537,5.20507c-0.577698,-0.366409 -0.752747,0.119438 -0.391541,1.0858c0.359741,0.961922 0.106995,1.748909 -0.561462,1.748909c-0.668701,0 -1.215546,1.024559 -1.215546,2.276749c0,2.263809 0.02652,2.263069 4.666534,-0.131287c2.56662,-1.324432 5.482117,-3.142662 6.479065,-4.04055c1.29895,-1.170052 2.030243,-1.270973 2.580963,-0.356323c0.451843,0.750381 -0.16684,1.527252 -1.501678,1.88549c-1.248535,0.335114 -2.569031,1.576149 -2.93457,2.757813c-0.365387,1.181709 -1.071075,1.890549 -1.568207,1.575188c-1.035248,-0.656578 -2.364746,2.131393 -2.862701,6.00338c-0.187225,1.454979 -1.232849,3.315231 -2.323608,4.13382c-2.934448,2.20211 -1.270782,2.971542 2.306458,1.066772c1.702087,-0.906372 3.741577,-1.647942 4.532104,-1.647942c0.790405,0 2.957458,-1.312851 4.815552,-2.91748c3.184814,-2.75042 3.378235,-2.787018 3.378235,-0.63942c0,1.280579 -0.951935,2.588173 -2.173767,2.986183c-1.195435,0.389458 -2.06012,1.288017 -1.921509,1.996849c0.138733,0.708809 -0.482117,1.31179 -1.379761,1.339989c-1.663239,0.0522 -3.116821,4.001129 -1.467957,3.988487c0.497131,-0.003807 2.336243,-0.77356 4.086853,-1.710548c1.750488,-0.936989 3.438782,-1.440948 3.751495,-1.119957c0.312805,0.320999 -0.131378,0.59137 -0.986786,0.600868c-1.132294,0.012558 -1.197876,0.250641 -0.24115,0.874962c2.094879,1.36676 -0.182098,3.897217 -3.506989,3.897217c-2.784271,0 -2.949677,0.263184 -2.389954,3.803383c0.532928,3.37043 0.321808,3.80336 -1.855011,3.80336c-1.350952,0 -2.983093,-0.540611 -3.626984,-1.201393c-0.828735,-0.850578 -1.353607,-0.482758 -1.797668,1.259644c-0.590851,2.318848 -0.361359,2.418365 3.97049,1.723106c2.528809,-0.405907 6.428955,-1.658867 8.66745,-2.784416c3.517487,-1.768761 3.929779,-1.801331 3.038055,-0.23999c-1.717407,3.007027 -5.204956,6.87767 -6.197083,6.87767c-1.854919,0 -7.124481,5.906181 -6.156189,6.89994c1.520325,1.560333 10.427612,-2.047699 14.515625,-5.879822c2.584717,-2.423119 3.992981,-3.071869 4.821655,-2.22142c0.828705,0.850471 0.766754,1.201302 -0.211975,1.201302c-0.760315,0 -1.061401,0.53315 -0.668945,1.184708c0.392334,0.651588 -0.527679,2.365135 -2.044495,3.807915c-2.114838,2.011688 -2.45813,2.936417 -1.472137,3.966919c0.707275,0.73909 0.791718,1.207092 0.187775,1.040009c-2.45871,-0.680191 -6.039001,1.516388 -6.039001,3.705002c0,1.335678 -0.911499,2.528107 -2.196045,2.872818c-1.207825,0.324188 -2.196045,1.021439 -2.196045,1.54953c0,0.528061 -0.822144,0.636292 -1.827026,0.24054c-1.256958,-0.495041 -1.57074,-0.293777 -1.005798,0.644623c1.447174,2.403107 5.81015,0.044281 13.279327,-7.179352c1.281891,-1.239578 3.253937,-3.014481 4.382629,-3.944229c1.860962,-1.532883 1.985077,-1.506592 1.332062,0.281708c-0.396057,1.084732 -0.246521,1.972153 0.332672,1.972153c0.579041,0 0.220062,0.99823 -0.797821,2.218201c-2.722473,3.263519 -3.094299,7.91539 -0.635956,7.958389c1.749969,0.030579 1.724609,0.173737 -0.236969,1.340622c-1.207825,0.71843 -2.309937,1.083389 -2.449341,0.810959c-0.139435,-0.272522 -1.032104,0.645538 -1.983704,2.040146c-0.99173,1.453064 -2.875854,2.535553 -4.413239,2.535553c-3.462372,0 -3.434357,1.540741 0.05777,3.173691c1.840698,0.860718 3.643738,0.929306 5.490051,0.208817c1.677185,-0.654388 2.749451,-0.664169 2.749451,-0.02504c0,0.576279 1.212769,-0.19693 2.695068,-1.718246c1.4823,-1.521393 3.401215,-2.766129 4.263977,-2.766129c0.862915,0 1.827332,-1.014206 2.143127,-2.253845c0.730591,-2.867249 2.074402,-2.867249 3.819153,0c1.175751,1.932281 1.095947,2.256302 -0.559326,2.271103c-1.618347,0.01445 -1.669312,0.187057 -0.314575,1.06633c1.377167,0.89389 1.327179,1.162827 -0.337616,1.818527c-1.074677,0.423203 -1.699432,1.450043 -1.388458,2.281845c0.311096,0.831787 -0.158447,2.255356 -1.043335,3.163498c-1.062653,1.090729 -1.215149,1.900848 -0.449036,2.386795c1.472137,0.933792 -0.754852,3.915771 -2.924377,3.915771c-0.831909,0 -1.512543,0.538239 -1.512543,1.195984c0,0.784546 1.794281,0.928696 5.215485,0.419098c2.868652,-0.427353 4.830811,-0.359192 4.360352,0.151367c-0.837219,0.90863 -1.813782,1.189804 -7.379822,2.124832c-1.509766,0.253601 -2.992065,0.552261 -3.294067,0.663544c-0.301941,0.111267 -1.784241,0.178848 -3.294006,0.150116c-2.120422,-0.040359 -2.263123,0.087082 -0.626587,0.560242c3.507416,1.01413 4.922394,3.027008 3.253143,4.627457c-0.789764,0.757156 -2.258362,1.376602 -3.263641,1.376602c-1.40448,0 -1.544678,0.350189 -0.604858,1.51239c0.672577,0.831818 0.909393,1.834061 0.526184,2.22728c-0.383179,0.39328 0.112488,1.0336 1.101227,1.42305c0.988892,0.38945 1.524506,1.162064 1.190399,1.716949c-1.704407,2.830521 13.737274,-1.528397 15.992279,-4.514389c0.956757,-1.266769 6.761505,-4.816788 7.177521,-4.389648c0.219543,0.225159 -0.221283,1.660309 -0.979645,3.189102c-0.895874,1.806168 -2.126282,2.650238 -3.513855,2.410385c-2.07547,-0.358826 -2.073761,-0.320526 0.061035,1.372803c1.840149,1.45961 1.903503,1.747818 0.392059,1.777802c-1.942505,0.038589 -3.536377,2.968826 -2.526855,4.645279c0.339478,0.563858 -0.390717,1.025208 -1.622467,1.025208c-1.481781,0 -2.47641,0.966949 -2.938568,2.856613c-0.384155,1.571228 -2.105957,3.603668 -3.826172,4.516617c-2.024719,1.074631 -2.905823,2.252853 -2.498901,3.341431c0.345825,0.92485 0.845734,1.681519 1.110992,1.681519c1.852478,0 16.707489,-8.08252 18.393677,-10.007828c2.147736,-2.452499 6.143311,-3.272919 6.143311,-1.261459c0,0.619843 -1.111694,1.13472 -2.47049,1.144211c-1.80481,0.012589 -2.06897,0.278351 -0.980469,0.986237c1.643768,1.069031 0.764496,5.758041 -1.079773,5.758041c-0.598877,0 -0.783447,0.507111 -0.410278,1.126953c0.373138,0.619797 0.126068,1.126907 -0.549042,1.126907c-0.67514,0 -0.944,0.47084 -0.597504,1.046402c0.346466,0.57547 -0.488983,1.209381 -1.856812,1.4086c-1.367676,0.19928 -2.486725,1.122971 -2.486725,2.052719c0,1.006348 -1.221863,1.834671 -3.019531,2.046921c-1.660706,0.196167 -3.019501,1.02179 -3.019501,1.834702c0,0.812958 -1.111694,2.273987 -2.47052,3.246765c-2.145081,1.535812 -2.208893,1.776611 -0.484253,1.827881c1.092529,0.032471 1.709442,0.518921 1.371033,1.080963c-0.955566,1.586807 3.994324,0.00119 7.243317,-2.32016c1.602966,-1.14537 3.24173,-2.082443 3.641724,-2.082443c0.400085,0 2.379211,-1.293228 4.398376,-2.873749c3.616577,-2.831192 5.593994,-2.369751 4.33017,1.010483c-0.353973,0.946548 -1.261383,1.47757 -2.016632,1.18013c-0.755157,-0.29747 -1.373199,0.24173 -1.373199,1.198059c0,0.956451 0.782349,1.778946 1.738678,1.827881c1.036926,0.05307 1.209381,0.30983 0.427551,0.636246c-0.720795,0.301071 -1.016602,1.334244 -0.656982,2.296021c0.550293,1.471863 0.279846,1.543259 -1.708679,0.451019c-2.388092,-1.311768 -3.469879,0.199951 -1.181763,1.651321c1.743225,1.10585 -2.890076,5.139679 -4.965088,4.322479c-0.93808,-0.369537 -1.705658,-0.094498 -1.705658,0.611099c0,0.705582 0.709961,1.562454 1.577667,1.90419c0.867615,0.341751 1.310059,1.337173 0.983032,2.212021c-0.327179,0.874832 -1.03714,1.310089 -1.57785,0.967133c-0.540558,-0.342911 -0.982849,0.167191 -0.982849,1.133438c0,3.164429 2.735626,1.853409 8.276337,-3.966141c5.834106,-6.127777 10.988098,-9.541687 11.962433,-7.923599c0.329529,0.547241 -0.136597,1.621719 -1.035675,2.38765c-2.136261,1.819641 -2.090271,6.620819 0.087097,9.090179c1.454956,1.650009 1.497864,2.321182 0.276642,4.328064c-0.79483,1.30629 -2.063843,2.131439 -2.819977,1.833649c-0.756195,-0.297729 -1.374756,-0.066101 -1.374756,0.514771c0,0.580887 -0.741211,0.764328 -1.647003,0.407516c-2.001007,-0.78801 -2.156067,0.842804 -0.274536,2.885834c1.129944,1.226868 0.961334,1.273666 -0.953613,0.26503c-2.66748,-1.404953 -3.712891,-0.733063 -3.712891,2.386246c0,1.810333 -0.521393,2.063904 -3.019562,1.468353c-2.005676,-0.47818 -2.511475,-0.372391 -1.506378,0.315277c1.917877,1.311951 0.611328,3.658264 -1.560852,2.802811c-1.124695,-0.442917 -1.426117,-0.109909 -0.980042,1.083191c0.575775,1.5401 1.072235,1.542969 4.678986,0.026672c2.219208,-0.932892 6.096558,-3.747223 8.616394,-6.254074l4.581573,-4.557968l-0.628784,4.938492c-0.345612,2.716156 -1.05899,5.111069 -1.585052,5.32193c-1.751831,0.70253 -4.260437,6.772919 -3.102264,7.507538c0.601807,0.381653 1.094025,1.111938 1.094025,1.622986c0,1.388062 -5.878448,2.305298 -7.082092,1.105103c-1.499329,-1.495117 -2.799988,-1.280945 -2.799988,0.461029c0,0.825714 1.7789,2.061646 3.953064,2.746552c4.415771,1.39093 8.859283,0.265076 11.144562,-2.823608c1.24292,-1.679688 1.372528,-1.641724 1.372528,0.401733c0,1.241211 -1.007416,3.366608 -2.2388,4.723145c-1.231384,1.356384 -1.848969,2.477844 -1.372528,2.491943c0.476501,0.014069 -0.732635,0.834717 -2.686829,1.823517c-1.954193,0.9888 -3.281799,2.248657 -2.949951,2.799591c0.931671,1.547119 -2.677338,2.51886 -4.281067,1.152771c-1.056732,-0.899994 -1.914276,-0.623291 -3.330872,1.074677c-1.049255,1.257721 -2.996735,2.197449 -4.327423,2.088287c-3.834869,-0.314697 -4.800598,0.132568 -2.419739,1.120972c1.323578,0.549377 3.587708,0.328125 5.699249,-0.55719c2.957489,-1.23996 3.708588,-1.214783 4.821472,0.161499c0.725128,0.896729 2.113373,1.385315 3.084961,1.085663c0.971466,-0.299561 3.129547,-0.785278 4.795319,-1.079437c1.665955,-0.294189 4.079651,-0.877106 5.3638,-1.29538c2.172577,-0.707703 2.128052,-0.482544 -0.638947,3.240784c-1.740326,2.341797 -3.602295,3.753845 -4.489197,3.404541c-2.041077,-0.803864 -5.46051,1.947479 -5.46051,4.393524c0,1.084656 -0.328949,1.845306 -0.731171,1.690399c-0.402161,-0.154999 -1.734711,0.905792 -2.961243,2.357361c-1.226563,1.451385 -2.716248,2.330566 -3.310516,1.953644c-1.849548,-1.173035 -2.762329,1.874725 -0.965363,3.223297c1.326965,0.99588 0.15863,1.253265 -5.322327,1.172729c-6.033569,-0.088837 -7.022552,0.178619 -7.022552,1.898376c0,1.316376 -0.563934,1.779663 -1.647034,1.353088c-0.905823,-0.35675 -2.511688,-0.265442 -3.568542,0.202881c-1.056885,0.468414 -3.033173,0.739868 -4.392059,0.603424c-3.995148,-0.401367 -2.829193,1.836823 1.647034,3.161957l4.117554,1.218933l-5.215546,-0.521973c-3.022919,-0.30249 -5.215576,-0.05722 -5.215576,0.583496c0,0.607849 1.111694,1.14093 2.47052,1.18454c2.347229,0.075256 2.36084,0.125122 0.274536,0.999054c-1.620667,0.678741 -2.931183,0.215088 -5.001099,-1.769623c-2.841797,-2.724609 -5.026062,-3.62677 -3.782959,-1.5625c0.373108,0.619781 0.155304,1.126892 -0.484283,1.126892c-2.676147,0 -0.884491,2.031006 2.405731,2.727203c3.126099,0.661469 3.322083,0.900208 1.580414,1.925568c-1.093597,0.643707 -2.822906,0.793945 -3.843048,0.333771c-1.020111,-0.460114 -2.189301,-0.768494 -2.598267,-0.685181c-0.408752,0.083313 -1.394043,-1.357544 -2.189575,-3.201874c-1.802856,-4.18045 -2.858398,-4.261597 -3.307678,-0.254272c-0.232697,2.075531 -0.891327,2.968658 -1.994446,2.704437c-6.098145,-1.46109 -6.588989,-1.188354 -6.566315,3.648621c0.021332,4.528046 1.553741,17.328125 2.814728,23.510437c0.603271,2.957886 0.438843,3.09906 -3.608612,3.09906l-4.240692,0l0.43573,-7.913574zm-17.383057,-23.642548c1.058228,-0.112946 1.178436,-0.371368 0.336182,-0.723053c-0.720856,-0.300964 -1.005676,-1.36322 -0.632813,-2.360535c0.533752,-1.427734 0.228943,-1.628632 -1.434265,-0.94516c-3.51532,1.44458 -5.337769,1.543365 -6.778687,0.367493c-0.919312,-0.750397 -1.372498,-0.729919 -1.372498,0.062134c0,0.650238 -0.864624,1.395691 -1.921509,1.656647c-1.658813,0.409637 -1.592712,0.613464 0.483185,1.491333c2.110382,0.892303 5.804657,1.039612 11.320404,0.451141zm-27.450195,-18.324524c0,-0.545563 -0.741241,-0.231293 -1.647034,0.698425c-0.905823,0.929688 -1.631348,2.360474 -1.612183,3.179565c0.038635,1.64505 3.259216,-2.18692 3.259216,-3.877991zm15.372131,-5.409393c0,-0.580933 -0.546875,-1.056213 -1.215576,-1.056213c-0.680481,0 -0.920837,-0.868011 -0.546204,-1.972107c0.619659,-1.826202 0.555969,-1.822876 -0.858765,0.044464c-1.253998,1.654968 -1.795898,1.755981 -3.022339,0.563477c-1.738708,-1.690826 -9.729248,-2.355682 -9.729248,-0.80957c0,0.575714 -0.741241,1.046783 -1.647034,1.046783c-2.290771,0 -2.070709,1.999298 0.274475,2.4935c4.293274,0.904602 16.74469,0.673828 16.74469,-0.310333zm10.980072,0.070679c0,-1.458099 -1.866974,-1.458099 -2.745026,0c-0.373169,0.619781 0.091675,1.126953 1.033264,1.126953c0.941345,0 1.711761,-0.507172 1.711761,-1.126953zm15.913361,-2.240936c0.384674,-0.638794 -0.05603,-0.827728 -1.033264,-0.442841c-1.902222,0.749146 -2.250183,1.556885 -0.670715,1.556885c0.568146,0 1.334961,-0.501343 1.703979,-1.114044zm46.673157,-2.266754c0,-0.619781 -0.741241,-1.126923 -1.647034,-1.126923c-0.905823,0 -1.647003,0.507141 -1.647003,1.126923c0,0.619812 0.74118,1.126892 1.647003,1.126892c0.905792,0 1.647034,-0.50708 1.647034,-1.126892zm-90.036743,-1.55896c0,-0.23761 -0.988892,-0.697418 -2.19751,-1.02182c-1.208557,-0.324371 -1.920715,-0.130005 -1.582275,0.432007c0.591125,0.981476 3.779785,1.479034 3.779785,0.589813zm90.585754,-1.821808c-0.869507,-1.444031 -1.647003,-1.444031 -1.647003,0c0,0.619781 0.523224,1.126953 1.16272,1.126953c0.639618,0 0.857391,-0.507172 0.484283,-1.126953zm-85.644714,-4.507721c0.378357,-0.628357 -0.442993,-1.119293 -1.856781,-1.10965c-2.039612,0.013916 -2.213287,0.230835 -0.888214,1.10965c2.04303,1.355133 1.928986,1.355133 2.744995,0zm4.94104,-1.193451c0,-0.656342 -0.494049,-0.879974 -1.098022,-0.496948c-1.406952,0.892456 -1.406952,1.690399 0,1.690399c0.603973,0 1.098022,-0.537018 1.098022,-1.193451zm-17.834351,-1.237976c0.924316,-0.948669 1.666199,-0.968109 2.71875,-0.071564c1.066406,0.908325 2.423889,0.747711 5.155518,-0.610077c2.039307,-1.013733 3.121643,-2.043732 2.40509,-2.288879c-0.716675,-0.245178 -2.065063,0.203491 -2.996582,0.99704c-1.361816,1.159821 -1.862,1.163605 -2.550812,0.019562c-0.675537,-1.121826 -1.860138,-1.145935 -5.595001,-0.113678c-3.489716,0.964386 -4.326767,1.57663 -3.17688,2.323517c2.046707,1.329559 2.524536,1.299316 4.039917,-0.25592zm112.634552,-4.260559c1.052277,-1.079926 -1.076477,-1.137421 -7.233978,-0.195526c-0.452911,0.069305 -0.823486,0.663544 -0.823486,1.320557c0,1.47052 6.399139,0.576996 8.057465,-1.125031zm-107.435089,-4.564331c0.384705,-0.638824 -0.05603,-0.827698 -1.033264,-0.442871c-1.902222,0.749146 -2.250183,1.556885 -0.670715,1.556885c0.568176,0 1.334991,-0.501343 1.703979,-1.114014zm5.497833,-15.789902c-0.869476,-1.443985 -1.647003,-1.443985 -1.647003,0c0,0.619781 0.523254,1.126938 1.16272,1.126938c0.639648,0 0.857422,-0.507156 0.484283,-1.126938zm1.513092,-5.525848c1.965088,-1.277344 0.429596,-3.847137 -1.77887,-2.977325c-0.92981,0.36618 -2.902802,-0.149323 -4.384399,-1.145645c-1.686829,-1.134415 -3.729523,-1.544678 -5.464844,-1.097626c-3.349686,0.862823 -2.697205,1.673279 3.325378,4.130753c5.521545,2.252914 6.346924,2.361237 8.302734,1.089844zm109.934814,-5.823883c0,-1.954788 -3.404999,-4.928131 -4.217255,-3.682556c-0.397949,0.61058 -1.58844,1.437607 -2.645325,1.837799c-3.441711,1.303284 -2.026062,3.052185 2.47052,3.052185c2.415619,0 4.392059,-0.543335 4.392059,-1.207428zm-104.10498,-4.070099c-0.792694,-0.325531 -1.739624,-0.285477 -2.104614,0.088928c-0.364838,0.374527 0.283752,0.640884 1.441162,0.591949c1.279175,-0.054062 1.539368,-0.321121 0.663452,-0.680878zm5.28418,-13.880219c-1.366089,-0.906143 -1.272644,-1.098282 0.548981,-1.126938c1.778503,-0.027908 1.889923,-0.233185 0.585724,-1.079712c-1.004944,-0.65242 -2.102966,-0.625397 -2.921661,0.071991c-0.812897,0.692535 -1.555084,0.71286 -1.951935,0.053619c-0.352234,-0.584976 0.097717,-1.35434 1.000153,-1.709732c0.902466,-0.355408 1.633087,-1.29599 1.623962,-2.09021c-0.011261,-0.962051 -0.286041,-1.040466 -0.823517,-0.234909c-1.215149,1.821274 -4.49054,2.784363 -5.239502,1.540588c-0.362976,-0.602844 -1.119995,-0.804352 -1.682159,-0.447708c-0.562134,0.356552 -1.022125,0.117279 -1.022125,-0.53183c0,-0.649109 -1.111694,-1.059326 -2.47052,-0.911713c-1.765778,0.191925 -2.427124,-0.294083 -2.317993,-1.703674c0.088593,-1.145538 -0.601685,-1.964874 -1.647034,-1.954849c-8.111069,0.07782 -2.585388,7.503311 7.185455,9.655899c8.262268,1.820358 11.413422,1.982254 9.132172,0.469177zm63.684509,-13.523071c0,-0.619843 -0.494019,-1.126953 -1.097992,-1.126953c-0.603973,0 -1.098053,0.507111 -1.098053,1.126953c0,0.619781 0.49408,1.126892 1.098053,1.126892c0.603973,0 1.097992,-0.507111 1.097992,-1.126892zm-68.076538,-1.126953c1.331848,-0.883362 1.174255,-1.095718 -0.823547,-1.109665c-1.358826,-0.009491 -2.47052,0.489883 -2.47052,1.109665c0,1.411942 1.165161,1.411942 3.294067,0zm12.68634,-14.748154c1.131348,-1.879105 -1.413544,-4.033875 -2.928284,-2.479279c-1.266998,1.3004 -0.473938,3.7043 1.222015,3.7043c0.532654,0 1.300385,-0.551285 1.706268,-1.225021zm5.430786,-2.155762c-0.869476,-1.44397 -1.647003,-1.44397 -1.647003,0c0,0.619843 0.523254,1.126953 1.16275,1.126953c0.639618,0 0.857422,-0.507111 0.484253,-1.126953zm44.46936,-6.761505c0,-0.619797 -0.523254,-1.126953 -1.16275,-1.126953c-0.639618,0 -0.857452,0.507156 -0.484283,1.126953c0.869537,1.44397 1.647034,1.44397 1.647034,0zm-43.371338,-4.507736c0.373169,-0.619781 0.184448,-1.126923 -0.419403,-1.126923c-0.603973,0 -1.403473,0.507141 -1.776642,1.126923c-0.373108,0.619797 -0.184387,1.126953 0.419403,1.126953c0.603973,0 1.403473,-0.507156 1.776642,-1.126953zm-6.313568,-1.40863c-0.518158,-1.595337 -2.283813,-1.420013 -2.836426,0.281708c-0.201447,0.619797 0.457336,1.126923 1.463898,1.126923c1.006592,0 1.624237,-0.633865 1.372528,-1.40863zm-4.117523,-2.037048c0,-1.794205 -2.451904,-2.460968 -3.400055,-0.924652c-1.497284,2.426361 -1.17453,3.08136 1.20401,2.443008c1.207825,-0.324173 2.196045,-1.007385 2.196045,-1.518356zm49.464966,-7.289047c4.07843,-2.164581 4.070343,-2.523132 -0.043274,-1.903488c-1.805603,0.271973 -3.033478,0.908554 -2.728821,1.414642c0.304749,0.506042 -0.564972,1.1409 -1.9328,1.410706c-1.741638,0.343582 -1.894592,0.536499 -0.510651,0.644012c1.086853,0.084412 3.433807,-0.620193 5.215546,-1.565872zm-13.230652,-12.433731c0,-0.273361 -0.770447,-0.496964 -1.711792,-0.496964c-0.941589,0 -1.401581,0.515381 -1.022156,1.145279c0.62677,1.040817 2.733948,0.541138 2.733948,-0.648315zm-14.274139,-16.642197c0,-1.052155 -1.057526,-1.326935 -3.568512,-0.927368c-3.455261,0.549835 -3.481445,0.593811 -0.823517,1.382935c4.072906,1.209198 4.392029,1.176086 4.392029,-0.455566zm-43.623077,175.487762c0.36499,-0.374451 1.31192,-0.414459 2.104614,-0.088928c0.875916,0.359772 0.615784,0.626831 -0.663452,0.680878c-1.15741,0.048889 -1.806,-0.217407 -1.441162,-0.591949zm19.521973,-181.775391c-1.3685,-2.624458 -1.447449,-3.486443 -0.319153,-3.486443c1.436066,0 3.586365,4.356773 2.492645,5.050491c-0.561188,0.356003 -1.539276,-0.347816 -2.173492,-1.564049zm16.415039,-34.069679c0,-0.533859 0.453735,-0.970673 1.008209,-0.970673c0.554474,0 1.789764,-0.307777 2.745026,-0.684036c0.955261,-0.376213 1.736816,-0.181755 1.736816,0.432098c0,0.613876 -1.23526,1.358482 -2.745056,1.654701c-1.509735,0.296188 -2.744995,0.101791 -2.744995,-0.432091zm9.742004,-8.50666c-1.336853,-1.686729 -1.258972,-1.81366 0.689087,-1.124184c2.108215,0.746185 2.114807,0.712494 0.160583,-0.843941c-1.872314,-1.491135 -1.718567,-1.604385 1.916534,-1.411446c2.173645,0.115356 3.954315,0.336571 3.95694,0.491516c0.007935,0.44912 -4.343506,4.789421 -4.801636,4.789421c-0.227966,0 -1.092621,-0.855629 -1.921509,-1.901375l0,0.000008zm-0.331299,-7.911003c-1.830658,-2.57534 -1.86792,-2.881386 -0.274536,-2.253777c1.01413,0.399361 1.843933,0.23497 1.843933,-0.365402c0,-0.600357 0.554626,-1.091537 1.232422,-1.091537c0.878754,0 0.896698,0.415237 0.062744,1.446449c-1.453064,1.797058 -0.345947,3.74852 2.547852,4.49057c1.808777,0.463791 1.712158,0.579887 -0.549011,0.658356c-1.771912,0.061554 -3.496002,-0.961044 -4.863403,-2.884659zm0.647247,-7.361847c-1.717255,-1.76236 -1.606415,-3.110451 0.255585,-3.110451c1.740051,0 3.21991,3.02108 1.892456,3.863197c-0.480927,0.304993 -1.447571,-0.033745 -2.148041,-0.752747zm0.592133,-9.12896c-0.310547,-0.831013 -0.123962,-2.225559 0.414734,-3.099072c0.712921,-1.155849 0.984192,-0.744541 0.996521,1.510849c0.01825,3.36525 -0.520172,3.97123 -1.411255,1.588223z"/>
  </g>
  <g id="svg_3">
   <path id="svg_4" fill="#007f3f" d="m230.88623,333.765228c0.188675,-3.234161 0.071732,-8.337769 -0.260422,-11.339691c-0.567001,-5.136475 -0.713425,-5.421722 -2.47438,-4.8237c-1.029861,0.349945 -2.941177,0.607605 -4.248154,0.572632c-1.307938,-0.033966 -2.37709,0.188751 -2.37709,0.494141c0,0.305389 -1.152695,0.47821 -2.561844,0.38385c-1.85434,-0.124054 -2.706329,0.267212 -3.082687,1.417725c-0.602371,1.838684 -2.996201,2.164215 -2.996201,0.407196c0,-1.232178 -1.398361,-1.326538 -3.231064,-0.216339c-0.72226,0.43689 -0.910934,0.244934 -0.579773,-0.590637c0.367523,-0.927826 -0.015717,-1.14624 -1.522171,-0.871613c-1.107483,0.201477 -1.5271,0.143127 -0.932571,-0.130432c1.485825,-0.684998 1.370834,-2.088959 -0.12677,-1.532227c-0.665283,0.248108 -1.826797,-0.4104 -2.592316,-1.468658l-1.38559,-1.918213l0,1.86203c0,1.023254 -0.38913,1.860962 -0.86377,1.860962c-0.475616,0 -0.864746,-0.324493 -0.864746,-0.721039c0,-0.396576 -0.971893,-0.541901 -2.159958,-0.32132c-1.260773,0.233276 -2.160904,0.01062 -2.160904,-0.535492c0,-0.514282 0.730133,-0.934174 1.622406,-0.934174c0.893265,0 2.086243,-0.54187 2.652252,-1.202484c0.567017,-0.661682 2.164856,-1.444244 3.552399,-1.740112c4.057495,-0.863129 3.649689,-1.776123 -0.80481,-1.801544c-2.266068,-0.013794 -5.169891,-0.279938 -6.452286,-0.591705c-1.306976,-0.318115 -3.163269,-0.13678 -4.218658,0.41037c-1.41507,0.733795 -1.967331,0.738037 -2.215958,0.014832c-0.182785,-0.529114 -0.680984,-0.752838 -1.107483,-0.498383c-1.137939,0.681854 -6.915131,-0.517456 -6.398239,-1.327576c0.241745,-0.379608 1.697098,-0.493103 3.233017,-0.25238c2.466537,0.387054 2.901871,0.155884 3.732239,-1.980804c0.827408,-2.13028 0.742905,-2.433533 -0.71344,-2.539581c-1.280426,-0.093323 -1.438644,0.129333 -0.70163,0.990387c0.720306,0.840881 0.582733,1.248077 -0.56601,1.675415c-0.835297,0.310699 -1.654846,0.166473 -1.822891,-0.32132c-0.167053,-0.486725 -0.762558,-0.885406 -1.323669,-0.885406c-0.56012,0 -1.403275,-0.847229 -1.872009,-1.884277c-0.535568,-1.181305 -1.658783,-1.918274 -3.013885,-1.974426c-4.619583,-0.194092 -4.768967,-0.285278 -2.733826,-1.665894c1.728546,-1.173828 1.806168,-1.455872 0.635803,-2.303131c-0.73407,-0.53125 -1.583115,-2.189697 -1.886749,-3.68692c-0.684937,-3.379456 1.023941,-3.682709 3.919907,-0.695618c2.867477,2.957397 6.391373,4.199097 8.62796,3.039032c1.872009,-0.971283 2.456696,-2.553375 0.942383,-2.553375c-0.47464,0 -0.766479,-0.470825 -0.647583,-1.0466c0.118912,-0.575775 -0.270248,-0.95224 -0.86377,-0.837708c-0.594543,0.115601 -1.080963,-0.13147 -1.080963,-0.549286c0,-0.417755 -0.794006,-0.55777 -1.764893,-0.311768c-0.970886,0.246033 -1.665649,0.116669 -1.544769,-0.287354c0.120865,-0.40506 -0.269257,-1.591644 -0.86673,-2.637146c-1.414078,-2.471741 -0.763535,-3.352905 2.975555,-4.032623c1.970291,-0.358398 2.761337,-0.845154 2.222839,-1.366821c-0.538513,-0.521698 -1.464203,-0.484589 -2.600189,0.10498c-2.199234,1.140961 -3.606445,1.170624 -3.606445,0.077393c0,-0.460205 0.754715,-0.837708 1.677444,-0.837708c2.885162,0 2.889084,-1.655243 0.006882,-2.830139l-2.759369,-1.124023l2.482254,-0.605438l2.481262,-0.604431l-2.376114,-1.983978c-1.306976,-1.091125 -2.376129,-2.180145 -2.376129,-2.420837c0,-0.479309 4.834793,0.210999 6.913162,0.985077c0.712448,0.266174 1.555588,0.516418 1.872009,0.555634c0.316422,0.040314 0.867706,0.355255 1.224426,0.700928c1.341354,1.300018 9.001358,0.325531 9.001358,-1.144165c0,-0.407166 -0.874588,-0.74649 -1.944717,-0.754974c-1.069153,-0.007446 -2.839951,-0.929962 -3.935638,-2.049713c-1.237198,-1.263977 -2.521561,-1.837646 -3.390259,-1.515289c-1.097656,0.408234 -1.262741,0.17392 -0.765518,-1.090088c0.48938,-1.246979 0.398987,-1.386932 -0.399948,-0.618195c-1.227356,1.180206 -2.820282,-0.025452 -3.738113,-2.830139c-0.389145,-1.186584 -1.091751,-1.628754 -2.159943,-1.358337c-1.171356,0.296906 -1.696106,-0.162262 -2.010574,-1.760254c-0.423538,-2.145142 0.467773,-2.93512 1.493683,-1.32547c0.818588,1.284119 3.880615,0.994629 4.440735,-0.418884c0.273193,-0.690247 1.038712,-1.255463 1.701035,-1.255463c0.661346,0 1.203796,-0.377472 1.203796,-0.837708c0,-0.460175 -0.583725,-0.837677 -1.296158,-0.837677c-0.71344,0 -1.296173,-0.376465 -1.296173,-0.837708c0,-0.46019 -0.630875,-0.836639 -1.402283,-0.836639c-1.075043,0 -1.177246,-0.262955 -0.43927,-1.123993c1.228363,-1.43576 0.200485,-2.501434 -1.270599,-1.318054c-0.846085,0.679718 -1.079971,0.493057 -0.980713,-0.786804c0.071732,-0.924637 0.535553,-1.489838 1.031815,-1.257614c0.49527,0.232224 0.220123,-0.117691 -0.612213,-0.77832c-0.831345,-0.660614 -1.512344,-1.442093 -1.512344,-1.736893c0,-1.13884 1.999756,-0.435822 5.617004,1.976547c2.072479,1.381683 3.989685,2.512039 4.26091,2.512039c1.312866,0 0.220123,-2.464325 -2.124557,-4.787613c-1.815994,-1.800522 -2.278839,-2.735779 -1.512344,-3.057083c0.6073,-0.254486 0.035385,-0.249176 -1.271591,0.012726c-1.811081,0.363708 -2.376129,0.155884 -2.376129,-0.870575c0,-0.818604 0.761581,-1.373184 1.943756,-1.413483c1.069153,-0.036057 1.458282,-0.255554 0.864761,-0.487778c-0.594543,-0.232224 -1.080963,-1.019012 -1.080963,-1.748566c0,-0.729538 0.261398,-1.07309 0.579788,-0.764526c0.31839,0.308563 1.481888,-0.012726 2.586411,-0.713638c1.187088,-0.753922 3.473785,-1.18338 5.59343,-1.049774c2.312256,0.145279 3.723389,-0.155884 3.97496,-0.848312c0.214218,-0.589569 0.061905,-1.016907 -0.339035,-0.947983c-0.40094,0.068939 -1.312866,0.075287 -2.025314,0.013794c-1.152664,-0.09967 -1.152664,-0.20253 0,-0.923584c1.110443,-0.695618 1.081955,-0.814377 -0.199463,-0.824982c-1.561493,-0.012726 -2.969681,-3.45578 -2.021393,-4.942429c0.314468,-0.494141 2.326019,0.24176 4.895721,1.788849c3.623154,2.183334 4.494797,2.422974 5.150253,1.418793c1.143845,-1.75174 0.993484,-2.972244 -0.221115,-1.795212c-0.569962,0.552444 -1.589981,1.005234 -2.266068,1.005234c-0.98465,0 -1.019043,-0.246002 -0.172943,-1.233215c0.847076,-0.989319 0.759613,-1.519531 -0.4422,-2.683823c-0.96402,-0.935272 -1.148773,-1.565125 -0.517883,-1.768723c0.538513,-0.173904 0.979721,-0.687119 0.979721,-1.140976c0,-0.459137 -0.813644,-0.573654 -1.836609,-0.258728c-1.235245,0.379623 -1.643066,0.261917 -1.245071,-0.36264c0.336075,-0.525955 0.008835,-0.926773 -0.755692,-0.926773c-0.740936,0 -1.34726,-0.354156 -1.34726,-0.787872c0,-1.661606 1.733459,-1.696594 4.457458,-0.091187c2.541214,1.497253 3.030594,1.543915 4.75914,0.446426c1.059311,-0.67334 2.491089,-1.013718 3.180939,-0.757126c0.689835,0.256622 1.510361,0.063629 1.823837,-0.428375c0.314468,-0.49202 0.15921,-0.893906 -0.343918,-0.893906c-0.50412,0 -0.927658,-0.659546 -0.94339,-1.466507c-0.024551,-1.32547 -0.1474,-1.310638 -1.296158,0.160141c-1.510361,1.936218 -1.669571,1.099579 -0.278091,-1.470779c0.98465,-1.820663 0.980728,-1.821732 -0.882446,-0.21843c-1.869064,1.608597 -1.874954,1.607529 -2.905792,-1.041306c-0.62204,-1.595856 -1.561478,-2.571396 -2.358444,-2.448395c-0.817581,0.12619 -1.435684,-0.558838 -1.615524,-1.789932c-0.255508,-1.75174 -0.02948,-1.928833 1.875946,-1.465454c3.064987,0.745453 5.234741,-0.161163 3.957245,-1.653122c-0.540466,-0.63092 -0.753708,-1.726303 -0.473648,-2.433578c0.411758,-1.040222 0.193604,-1.122925 -1.142853,-0.429459c-2.700409,1.400772 -3.57402,1.039185 -2.984406,-1.236404c0.346878,-1.338181 0.177872,-2.094238 -0.466782,-2.094238c-0.55423,0 -0.757645,-0.393402 -0.45105,-0.873749c0.30661,-0.481415 0.040298,-1.51741 -0.59256,-2.303146c-0.631866,-0.785736 0.598465,0.090134 2.734818,1.946854c2.135376,1.856735 5.14238,3.878876 6.680283,4.493896c1.538864,0.615021 2.585434,1.451645 2.325989,1.858841c-0.259415,0.407181 -0.158203,0.765594 0.227005,0.796371c0.384232,0.030716 1.962418,0.216293 3.507187,0.411407c1.687271,0.21312 2.808517,-0.011658 2.808517,-0.564117c0,-0.506882 0.50412,-0.732742 1.119263,-0.504761c0.672165,0.250259 0.904083,0.60231 0.983673,-0.422028c0.100235,-1.28624 0.245667,-0.166473 -0.502151,-0.571548c-1.507431,-0.816467 -4.1931,0.227982 -4.1931,-0.918274c0,-0.46022 -0.690826,-0.836639 -1.535934,-0.836639c-0.845108,0 -2.349594,-0.55246 -3.343079,-1.226868c-0.9935,-0.674393 -2.052826,-0.989334 -2.352539,-0.697723c-0.300705,0.290543 -0.545395,-0.09967 -0.545395,-0.867386c0,-0.767715 0,-1.678574 0,-2.024261c0,-1.409256 5.857758,-0.599121 9.289291,1.284119l3.672287,0.62561l0,-0.861023c0,-1.548157 -0.540482,-2.389038 -1.728546,-2.690186c-1.768829,-0.448532 -2.425262,-1.91716 -0.855911,-1.91716c0.542435,0 0.497223,-0.580032 -0.118912,-1.537552c-1.04361,-1.618134 -5.174789,-1.55983 -4.825943,0.068909c0.101212,0.472946 -0.885406,1.152649 -2.192368,1.51001c-1.494659,0.409302 -2.376129,0.329758 -2.376129,-0.216339c0,-0.545029 -0.453018,-0.503677 -1.219513,0.112396c-0.829376,0.668045 -1.397369,0.701981 -1.776688,0.106064c-0.30658,-0.480362 0.339035,-1.226868 1.435699,-1.657394c7.745514,-3.045395 9.3237,-3.843857 9.755096,-4.931824c0.378326,-0.956451 0.225037,-1.01796 -0.692795,-0.279938c-0.648575,0.521698 -1.432739,0.704086 -1.741318,0.404007c-0.30954,-0.299011 -2.584442,-0.475052 -5.054916,-0.390213c-4.373917,0.149506 -5.452896,-0.417801 -1.817963,-0.955414c2.850754,-0.420975 4.603882,-2.277695 4.198013,-4.446167c-0.32428,-1.730545 -0.177856,-1.847198 1.242126,-0.987213c0.885391,0.535492 1.477951,1.181259 1.31778,1.433624c-0.161163,0.253433 1.054413,0.556702 2.701385,0.674408c1.645996,0.116638 2.794739,-0.098618 2.552017,-0.479294c-0.24173,-0.380676 0.086472,-1.6754 0.730133,-2.877869c0.996445,-1.863083 0.99054,-2.119705 -0.04422,-1.734787c-0.806778,0.300095 -1.215591,-0.141022 -1.215591,-1.312744c0,-0.970245 -0.537506,-1.764481 -1.194931,-1.764481c-0.657394,0 -1.382629,-0.69455 -1.611588,-1.5439c-0.392105,-1.449554 -0.219131,-1.437881 2.851746,0.191925c1.798309,0.95433 3.144577,1.932022 2.99324,2.171661c-0.152313,0.239639 1.076035,0.532303 2.729889,0.649994c2.737762,0.195129 2.884186,0.096512 1.644028,-1.105972c-0.749786,-0.726349 -1.362976,-1.578903 -1.362976,-1.893829c0,-0.315994 -1.168411,-1.075226 -2.597229,-1.688126c-1.449463,-0.621368 -2.345657,-1.507874 -2.028244,-2.006226c0.312485,-0.490967 0.023575,-1.306396 -0.643661,-1.81221c-0.66626,-0.505783 -1.654846,-2.121811 -2.197281,-3.591492c-0.928635,-2.517334 -0.891296,-2.613846 0.658386,-1.676468c0.904068,0.54715 1.494675,1.373199 1.312851,1.834457c-0.18277,0.461258 0.785187,0.918289 2.150131,1.014786c1.658768,0.117691 2.481277,-0.220566 2.481277,-1.020096c0,-0.786789 0.508041,-1.007355 1.482849,-0.644714c1.198883,0.445358 1.139923,0.194061 -0.312485,-1.316971c-2.168793,-2.254379 -2.229691,-5.618973 -0.100235,-5.456726c0.80777,0.061493 1.703979,-0.603363 1.989944,-1.477097c0.285965,-0.874817 0.854935,-1.390167 1.262741,-1.145218c0.408768,0.243881 0.968918,0.088013 1.247025,-0.346741c0.277115,-0.434753 -0.279083,-1.031754 -1.237198,-1.326538c-0.957123,-0.293716 -1.740341,-1.150528 -1.740341,-1.902328c0,-1.063553 0.229965,-1.14415 1.036743,-0.36264c1.411133,1.367889 2.419373,1.262924 2.419373,-0.251312c0,-0.690308 0.425476,-1.255493 0.944336,-1.255493c0.51886,0 1.968323,-0.781509 3.220261,-1.73584c1.250961,-0.95433 2.406586,-1.354095 2.565781,-0.889664c0.402893,1.171738 -3.148514,4.473755 -4.159683,3.868271c-0.45401,-0.272522 -0.591599,0.089081 -0.307587,0.806961c0.283005,0.714691 0.084488,1.300018 -0.4422,1.300018c-0.525742,0 -0.956161,0.761353 -0.956161,1.691299c0,1.682816 0.02063,1.681763 3.672287,-0.097565c2.020386,-0.984024 4.314957,-2.334946 5.099136,-3.001923c1.021988,-0.869522 1.597839,-0.944809 2.031204,-0.265091c0.355743,0.557755 -0.131668,1.134598 -1.182159,1.400757c-0.982681,0.249191 -2.021408,1.171722 -2.309311,2.049713c-0.286957,0.877991 -0.84314,1.404999 -1.234253,1.17067c-0.814636,-0.487793 -1.861191,1.584198 -2.252304,4.461014c-0.1474,1.081573 -0.970886,2.46431 -1.828781,3.071915c-2.310272,1.637222 -1.000366,2.208771 1.815033,0.793152c1.339386,-0.673325 2.944107,-1.224731 3.566147,-1.224731c0.622025,0 2.327972,-0.975555 3.790192,-2.168472c2.506836,-2.043365 2.659149,-2.070923 2.659149,-0.475052c0,0.952209 -0.749786,1.923523 -1.710846,2.219376c-0.941422,0.289474 -1.621445,0.95752 -1.512344,1.484528c0.10907,0.525955 -0.379318,0.974487 -1.085876,0.995712c-1.308929,0.038162 -2.452759,2.973297 -1.155624,2.96376c0.391098,-0.003189 1.838593,-0.574738 3.216309,-1.271408c1.377731,-0.695602 2.706314,-1.070984 2.952972,-0.832397c0.245667,0.238586 -0.10318,0.440063 -0.777313,0.446426c-0.890305,0.009537 -0.942383,0.186615 -0.189651,0.651062c1.648941,1.014786 -0.143478,2.895905 -2.759369,2.895905c-2.191391,0 -2.322083,0.195114 -1.880859,2.825912c0.418625,2.504608 0.252548,2.826965 -1.460266,2.826965c-1.063263,0 -2.347626,-0.401886 -2.854691,-0.892838c-0.652496,-0.631973 -1.065231,-0.358398 -1.41507,0.93631c-0.464798,1.723114 -0.283997,1.797348 3.124939,1.279877c1.990921,-0.301132 5.05983,-1.232162 6.821777,-2.068787c2.768219,-1.314865 3.092499,-1.339249 2.390869,-0.178146c-1.351181,2.234222 -4.09581,5.111023 -4.877045,5.111023c-1.460281,0 -5.607193,4.388931 -4.844635,5.126953c1.195923,1.160049 8.206375,-1.521667 11.423676,-4.368774c2.034164,-1.801575 3.142624,-2.283005 3.794144,-1.651001c0.652512,0.631973 0.603378,0.892822 -0.166077,0.892822c-0.59845,0 -0.835281,0.395523 -0.526703,0.880127c0.308548,0.484589 -0.41568,1.758118 -1.608673,2.830154c-1.664673,1.495132 -1.934891,2.182266 -1.158569,2.947861c0.556198,0.549255 0.623016,0.897064 0.1474,0.772995c-1.934906,-0.505783 -4.753235,1.126144 -4.753235,2.752762c0,0.992508 -0.717361,1.878998 -1.727554,2.13559c-0.951233,0.240723 -1.728531,0.758194 -1.728531,1.151581c0,0.392349 -0.647598,0.471878 -1.437668,0.178146c-0.989563,-0.367966 -1.236206,-0.218445 -0.792038,0.479294c1.138916,1.785675 4.572418,0.032867 10.450821,-5.335831c1.009216,-0.92041 2.560867,-2.239517 3.449219,-2.930893c1.465179,-1.138855 1.562454,-1.119766 1.048508,0.209946c-0.311493,0.805908 -0.193573,1.465454 0.261398,1.465454c0.455978,0 0.173935,0.741211 -0.62793,1.647827c-2.142242,2.425095 -2.435089,5.882996 -0.500183,5.91481c1.377716,0.022263 1.357086,0.129364 -0.186707,0.995682c-0.950256,0.534439 -1.817978,0.805893 -1.927048,0.603363c-0.110077,-0.20253 -0.812668,0.479294 -1.561478,1.515289c-0.780258,1.080521 -2.263107,1.884277 -3.472809,1.884277c-2.72496,0 -2.703354,1.145218 0.045212,2.35936c1.448486,0.639404 2.867477,0.690308 4.320847,0.1548c1.319748,-0.48671 2.163879,-0.493073 2.163879,-0.019073c0,0.428391 0.954178,-0.146332 2.120621,-1.276703c1.166443,-1.130356 2.676819,-2.055023 3.355865,-2.055023c0.679047,0 1.438629,-0.753922 1.686249,-1.675385c0.575897,-2.13031 1.63324,-2.13031 3.006042,0c0.92572,1.435745 0.862793,1.676453 -0.440216,1.688126c-1.27359,0.01059 -1.313873,0.138901 -0.24765,0.792099c1.083923,0.664856 1.044586,0.864212 -0.26532,1.35199c-0.8461,0.313858 -1.337433,1.077332 -1.092743,1.695541c0.244659,0.618195 -0.124786,1.6754 -0.821533,2.350861c-0.836243,0.810135 -0.956116,1.41243 -0.352753,1.774017c1.158569,0.693481 -0.594574,2.909683 -2.301483,2.909683c-0.655426,0 -1.190979,0.399765 -1.190979,0.888596c0,0.583221 1.412109,0.690308 4.104645,0.311752c2.258179,-0.318115 3.802002,-0.267227 3.431549,0.112396c-0.658417,0.675476 -1.42688,0.884354 -5.807678,1.578903c-1.188049,0.188751 -2.354507,0.41037 -2.5923,0.493088c-0.237823,0.082703 -1.404251,0.132553 -2.592316,0.111343c-1.669586,-0.029694 -1.781601,0.064667 -0.493317,0.416718c2.760361,0.753937 3.873734,2.249069 2.559891,3.438812c-0.621063,0.562012 -1.776688,1.02327 -2.568741,1.02327c-1.104523,0 -1.215561,0.259781 -0.475616,1.123993c0.529663,0.617142 0.715393,1.362595 0.413696,1.65419c-0.30069,0.292679 0.089447,0.768784 0.86673,1.058273c0.77829,0.28949 1.19986,0.863144 0.9375,1.275635c-1.34137,2.10379 10.811478,-1.135666 12.586166,-3.355042c0.752777,-0.94162 5.321259,-3.579834 5.648468,-3.261734c0.172974,0.167542 -0.17392,1.233231 -0.771393,2.369949c-0.704559,1.342453 -1.673523,1.969131 -2.765259,1.790985c-1.63324,-0.266159 -1.632233,-0.238586 0.048126,1.020081c1.448456,1.084778 1.498627,1.298965 0.308594,1.321228c-1.529053,0.028641 -2.782959,2.206665 -1.988953,3.452606c0.267273,0.418854 -0.307587,0.761353 -1.27652,0.761353c-1.166443,0 -1.948639,0.718948 -2.312256,2.122879c-0.302673,1.167465 -1.657776,2.678513 -3.011932,3.357162c-1.592896,0.798462 -2.286682,1.673279 -1.966309,2.482346c0.272156,0.687119 0.665283,1.250198 0.874573,1.250198c1.457306,0 13.148315,-6.007065 14.475891,-7.437515c1.690216,-1.822784 4.834808,-2.43251 4.834808,-0.937363c0,0.46019 -0.874603,0.843002 -1.944733,0.850403c-1.419983,0.009552 -1.628326,0.206787 -0.771423,0.732742c1.294189,0.79422 0.601379,4.278625 -0.850037,4.278625c-0.470703,0 -0.616119,0.377487 -0.322296,0.837692c0.293823,0.461273 0.099243,0.837708 -0.432404,0.837708c-0.531616,0 -0.742889,0.349915 -0.470703,0.777252c0.273193,0.428406 -0.384216,0.899216 -1.461243,1.0466c-1.076019,0.148453 -1.956482,0.834518 -1.956482,1.525894c0,0.747574 -0.962067,1.363647 -2.37616,1.521637c-1.307953,0.145264 -2.377106,0.759247 -2.377106,1.362595c0,0.604416 -0.874573,1.690247 -1.943726,2.413422c-1.688263,1.140961 -1.738373,1.320175 -0.381287,1.358337c0.859863,0.024399 1.345276,0.385986 1.078979,0.802719c-0.75174,1.180206 3.143616,0.001053 5.700531,-1.724182c1.26178,-0.850418 2.551056,-1.547104 2.865509,-1.547104c0.31543,0 1.873016,-0.960693 3.461975,-2.13559c2.846832,-2.103806 4.402435,-1.761292 3.407928,0.750732c-0.278046,0.704102 -0.992493,1.098572 -1.587006,0.876953c-0.594513,-0.220566 -1.080933,0.180267 -1.080933,0.890717c0,0.710449 0.616119,1.322281 1.368896,1.358337c0.815613,0.03923 0.951202,0.230103 0.336029,0.472946c-0.566986,0.22374 -0.799896,0.99144 -0.516876,1.706131c0.43335,1.093262 0.220123,1.146271 -1.345306,0.335083c-1.878876,-0.974487 -2.730865,0.148453 -0.929596,1.226852c1.371796,0.821808 -2.274933,3.819519 -3.907166,3.212952c-0.738953,-0.274643 -1.342316,-0.07103 -1.342316,0.453857c0,0.523804 0.558167,1.161118 1.241119,1.414536c0.682953,0.254517 1.030823,0.993591 0.773376,1.644653c-0.257507,0.649994 -0.815643,0.97345 -1.24115,0.717896c-0.425476,-0.254517 -0.773346,0.125122 -0.773346,0.842957c0,2.350891 2.152069,1.377472 6.513214,-2.947815c4.591095,-4.553284 8.647583,-7.090775 9.414093,-5.888306c0.25943,0.407196 -0.107147,1.205658 -0.814636,1.774033c-1.681396,1.353027 -1.64502,4.920151 0.068756,6.755661c1.144806,1.2258 1.178253,1.72525 0.217194,3.216156c-0.624969,0.971283 -1.62439,1.584198 -2.218903,1.362549c-0.59552,-0.22052 -1.08194,-0.048767 -1.08194,0.382813c0,0.43158 -0.58371,0.568359 -1.296173,0.303253c-1.575226,-0.586365 -1.697083,0.625641 -0.216187,2.144104c0.889343,0.911926 0.756683,0.94693 -0.750732,0.197235c-2.09903,-1.044464 -2.921539,-0.545044 -2.921539,1.772949c0,1.345642 -0.410736,1.534363 -2.377106,1.091125c-1.578186,-0.355225 -1.976166,-0.276733 -1.18512,0.234344c1.509399,0.975555 0.48053,2.718811 -1.228363,2.083649c-0.885376,-0.329773 -1.122192,-0.081635 -0.771362,0.80484c0.453003,1.144135 0.844086,1.14624 3.682037,0.019073c1.746277,-0.692413 4.798492,-2.784546 6.781525,-4.647644l3.605469,-3.386841l-0.494293,3.669983c-0.272186,2.018951 -0.83429,3.798279 -1.248016,3.955231c-1.378662,0.521667 -3.352875,5.032562 -2.440948,5.578644c0.473663,0.28418 0.860809,0.827087 0.860809,1.206696c0,1.031738 -4.626495,1.712494 -5.573761,0.820709c-1.180206,-1.111237 -2.204193,-0.952179 -2.204193,0.34256c0,0.613922 1.40033,1.532227 3.111206,2.041199c3.475739,1.033875 6.973083,0.197235 8.771393,-2.09848c0.977783,-1.248077 1.079987,-1.219452 1.079987,0.299042c0,0.922516 -0.79303,2.501404 -1.761963,3.509857c-0.968933,1.008392 -1.455322,1.84079 -1.079956,1.85141c0.37442,0.01059 -0.576843,0.620331 -2.114746,1.355164c-1.537872,0.734833 -2.582458,1.671143 -2.322052,2.080475c0.734039,1.150482 -2.106873,1.87262 -3.368652,0.85675c-0.832336,-0.667999 -1.506439,-0.463348 -2.621826,0.798492c-0.825409,0.935242 -2.358398,1.632996 -3.405945,1.552399c-3.017792,-0.234375 -3.777435,0.098633 -1.904419,0.833466c1.042603,0.408203 2.824219,0.243866 4.485962,-0.414612c2.326965,-0.921478 2.918518,-0.902405 3.794128,0.119812c0.570892,0.666962 1.663666,1.029633 2.428162,0.806946c0.764557,-0.222687 2.462616,-0.583221 3.773529,-0.801636c1.31189,-0.219513 3.211426,-0.65213 4.221588,-0.96283c1.709869,-0.52594 1.675476,-0.358429 -0.502167,2.408112c-1.369843,1.740082 -2.834991,2.789886 -3.533691,2.53006c-1.605713,-0.596985 -4.297272,1.447449 -4.297272,3.264923c0,0.805908 -0.258453,1.371063 -0.575867,1.256531c-0.316406,-0.11557 -1.36496,0.67337 -2.329895,1.75177c-0.966064,1.0784 -2.138367,1.731598 -2.60611,1.45166c-1.455322,-0.871643 -2.173676,1.393311 -0.759644,2.395386c1.044647,0.740143 0.124817,0.931 -4.188171,0.871613c-4.748291,-0.065704 -5.526611,0.132568 -5.526611,1.410339c0,0.978729 -0.444122,1.323334 -1.296112,1.006287c-0.71344,-0.265076 -1.977203,-0.197235 -2.808563,0.150574c-0.832306,0.347809 -2.387878,0.549286 -3.457031,0.448547c-3.144608,-0.299042 -2.226791,1.364716 1.296143,2.349823l3.240845,0.905518l-4.104614,-0.388092c-2.379074,-0.224792 -4.104675,-0.042389 -4.104675,0.433685c0,0.451752 0.874588,0.848328 1.943741,0.880157c1.847458,0.056183 1.858261,0.093292 0.216187,0.742249c-1.275513,0.50473 -2.306335,0.160095 -3.935638,-1.31488c-2.236588,-2.024261 -3.955292,-2.695465 -2.977509,-1.161102c0.293793,0.461243 0.122818,0.837708 -0.381302,0.837708c-2.105896,0 -0.69574,1.508911 1.893631,2.026398c2.460632,0.492004 2.614914,0.669067 1.244064,1.431488c-0.860825,0.478241 -2.221832,0.589569 -3.024689,0.248138c-0.802841,-0.342499 -1.722641,-0.571564 -2.044968,-0.51004c-0.321335,0.062561 -1.096664,-1.008453 -1.723618,-2.379517c-1.417999,-3.105835 -2.249359,-3.16629 -2.603134,-0.188721c-0.18277,1.542847 -0.700638,2.206635 -1.569336,2.010468c-4.799408,-1.085846 -5.185608,-0.883301 -5.167908,2.711365c0.016678,3.364594 1.22345,12.877289 2.214951,17.470856c0.475616,2.198151 0.345901,2.303131 -2.839951,2.303131l-3.337189,0l0.342957,-5.880859l0,0l0.000015,0zm-13.680908,-17.569427c0.833328,-0.083771 0.927658,-0.275726 0.265335,-0.537628c-0.567993,-0.223755 -0.792053,-1.012665 -0.49823,-1.753876c0.419601,-1.061432 0.179825,-1.210938 -1.129105,-0.703003c-2.766251,1.074158 -4.200958,1.147308 -5.334976,0.27356c-0.723251,-0.55777 -1.079971,-0.542908 -1.079971,0.046661c0,0.482452 -0.680023,1.037048 -1.512344,1.23111c-1.305008,0.304321 -1.252914,0.454895 0.380295,1.108093c1.660736,0.66272 4.568497,0.771942 8.908997,0.335083zm-21.603271,-13.617401c0,-0.406128 -0.583725,-0.172852 -1.296158,0.518524c-0.712463,0.691345 -1.284378,1.753876 -1.268646,2.362518c0.030457,1.222626 2.564804,-1.624512 2.564804,-2.881042zm12.097778,-4.019897c0,-0.432648 -0.430405,-0.785736 -0.956131,-0.785736c-0.535568,0 -0.725235,-0.644714 -0.43042,-1.465454c0.488388,-1.3573 0.438278,-1.354126 -0.67511,0.032867c-0.987595,1.230042 -1.414063,1.305328 -2.379074,0.418854c-1.367889,-1.256561 -7.657043,-1.750702 -7.657043,-0.601227c0,0.427307 -0.583725,0.77832 -1.296158,0.77832c-1.803238,0 -1.629303,1.485596 0.216187,1.852448c3.378448,0.672302 13.17775,0.500519 13.17775,-0.230072zm8.641724,0.051941c0,-1.08371 -1.469116,-1.08371 -2.159943,0c-0.293808,0.460236 0.071732,0.837708 0.812683,0.837708c0.740936,0 1.34726,-0.377472 1.34726,-0.837708zm12.524277,-1.664764c0.302658,-0.475098 -0.04422,-0.616119 -0.81366,-0.329803c-1.496628,0.556702 -1.770782,1.156891 -0.527695,1.156891c0.447128,0 1.050491,-0.372192 1.341354,-0.827087zm36.731674,-1.684967c0,-0.460205 -0.582703,-0.837708 -1.296143,-0.837708c-0.712463,0 -1.296173,0.377502 -1.296173,0.837708c0,0.460205 0.58371,0.837708 1.296173,0.837708c0.71344,0 1.296143,-0.377502 1.296143,-0.837708zm-70.859238,-1.158997c0,-0.176025 -0.77829,-0.517456 -1.729523,-0.759216c-0.951248,-0.240692 -1.51236,-0.096497 -1.245056,0.321289c0.464813,0.729523 2.974579,1.099609 2.974579,0.437927zm71.291611,-1.353027c-0.683929,-1.07309 -1.296143,-1.07309 -1.296143,0c0,0.460175 0.411774,0.836639 0.914856,0.836639c0.503174,0 0.67511,-0.376465 0.381287,-0.836639zm-67.403152,-3.3508c0.29776,-0.466583 -0.348846,-0.83136 -1.461243,-0.823944c-1.605698,0.01062 -1.742294,0.171814 -0.699661,0.823944c1.608643,1.007355 1.51825,1.007355 2.160904,0zm3.888474,-0.886475c0,-0.487793 -0.38913,-0.654266 -0.86377,-0.369019c-1.107483,0.66275 -1.107483,1.255493 0,1.255493c0.47464,0 0.86377,-0.398712 0.86377,-0.886475zm-14.035629,-0.920441c0.727173,-0.704102 1.310898,-0.718903 2.139297,-0.053009c0.839203,0.675476 1.908371,0.555634 4.057495,-0.452789c1.604706,-0.753906 2.456696,-1.519531 1.892639,-1.700836c-0.564072,-0.182373 -1.624374,0.150574 -2.358429,0.740143c-1.071136,0.862061 -1.465179,0.865265 -2.006653,0.014862c-0.531631,-0.833496 -1.464188,-0.851501 -4.403397,-0.084869c-2.746597,0.716858 -3.40596,1.171753 -2.500931,1.727356c1.611603,0.988281 1.986984,0.964966 3.179977,-0.190857zm88.644821,-3.165222c0.827393,-0.802704 -0.848083,-0.846191 -5.693665,-0.145264c-0.35672,0.050873 -0.647583,0.493073 -0.647583,0.980835c0,1.093262 5.035217,0.428406 6.341248,-0.835571zm-84.552933,-3.392151c0.302658,-0.475037 -0.04422,-0.615051 -0.813675,-0.329773c-1.496613,0.556671 -1.770782,1.15686 -0.527695,1.15686c0.447128,0 1.050491,-0.372192 1.34137,-0.827087zm4.326752,-11.734161c-0.683945,-1.07312 -1.296158,-1.07312 -1.296158,0c0,0.460205 0.411728,0.837708 0.914871,0.837708c0.50412,0 0.675095,-0.377502 0.381287,-0.837708zm1.190994,-4.106842c1.546753,-0.949066 0.338058,-2.858795 -1.40033,-2.211945c-0.731094,0.271423 -2.284729,-0.111359 -3.45018,-0.851501c-1.327621,-0.843018 -2.935272,-1.148407 -4.301193,-0.816498c-2.636551,0.64151 -2.122604,1.243835 2.616867,3.069794c4.34642,1.674347 4.995956,1.754944 6.534836,0.81015zm86.520264,-4.327393c0,-1.452759 -2.679779,-3.662567 -3.319489,-2.736877c-0.313477,0.453857 -1.25,1.067841 -2.082306,1.365814c-2.708282,0.968109 -1.593903,2.268097 1.944702,2.268097c1.901489,0 3.457092,-0.403961 3.457092,-0.897034zm-81.932114,-3.025299c-0.623993,-0.24176 -1.368881,-0.212067 -1.656799,0.065735c-0.286942,0.2789 0.224045,0.477203 1.134995,0.440063c1.006271,-0.040283 1.210663,-0.238586 0.521805,-0.505798zm4.158707,-10.314316c-1.075043,-0.674393 -1.001358,-0.816483 0.432388,-0.837692c1.399323,-0.02121 1.486786,-0.173904 0.460861,-0.802704c-0.791046,-0.484604 -1.655807,-0.464447 -2.299469,0.053024c-0.639725,0.515335 -1.224426,0.530182 -1.535934,0.040283c-0.278091,-0.434753 0.076645,-1.006287 0.78714,-1.270325c0.709488,-0.264038 1.284363,-0.962845 1.277481,-1.553467c-0.008835,-0.714691 -0.225037,-0.77301 -0.647598,-0.174973c-0.957123,1.354126 -3.534698,2.069885 -4.124298,1.145218c-0.284988,-0.447479 -0.88147,-0.598053 -1.323669,-0.332947c-0.442215,0.265091 -0.803848,0.086945 -0.803848,-0.394455c0,-0.482483 -0.875565,-0.787888 -1.944717,-0.677597c-1.389511,0.14209 -1.910339,-0.219513 -1.823868,-1.266098c0.068787,-0.851471 -0.473663,-1.460144 -1.29715,-1.452713c-6.383499,0.057266 -2.034134,5.57547 5.65535,7.175598c6.502411,1.351974 8.982681,1.472855 7.187332,0.348846zm50.120728,-10.050278c0,-0.460205 -0.38916,-0.837692 -0.864746,-0.837692c-0.475632,0 -0.863785,0.377487 -0.863785,0.837692c0,0.461273 0.388153,0.837708 0.863785,0.837708c0.475586,0 0.864746,-0.376434 0.864746,-0.837708zm-53.577789,-0.837692c1.048508,-0.656372 0.924698,-0.814377 -0.647598,-0.823914c-1.069168,-0.007431 -1.944717,0.363708 -1.944717,0.823914c0,1.049774 0.91684,1.049774 2.592316,0zm9.985031,-10.960083c0.890289,-1.395462 -1.112411,-2.997696 -2.305389,-1.841888c-0.996429,0.966019 -0.372437,2.752747 0.962051,2.752747c0.419601,0 1.023956,-0.409302 1.343338,-0.910858zm4.273682,-1.601181c-0.683945,-1.07309 -1.296158,-1.07309 -1.296158,0c0,0.46022 0.411743,0.836639 0.914871,0.836639c0.503128,0 0.675095,-0.376419 0.381287,-0.836639zm34.99823,-5.025131c0,-0.46022 -0.411743,-0.837692 -0.915863,-0.837692c-0.503128,0 -0.674133,0.377472 -0.380295,0.837692c0.683945,1.07309 1.296158,1.07309 1.296158,0zm-34.13446,-3.349731c0.293823,-0.46022 0.145432,-0.837723 -0.329193,-0.837723c-0.475616,0 -1.104538,0.377502 -1.398361,0.837723c-0.293808,0.46019 -0.145447,0.837692 0.330185,0.837692c0.47464,0 1.104523,-0.377502 1.397369,-0.837692zm-4.968445,-1.0466c-0.407806,-1.185501 -1.797318,-1.055084 -2.232651,0.208878c-0.158203,0.461288 0.360641,0.837723 1.152695,0.837723c0.792038,0 1.278458,-0.47081 1.079956,-1.0466zm-3.240891,-1.514236c0,-1.332886 -1.929001,-1.829147 -2.675827,-0.687119c-1.178238,1.802643 -0.923721,2.290421 0.948288,1.815384c0.950241,-0.240723 1.727539,-0.748642 1.727539,-1.128265zm38.929962,-5.416412c3.209427,-1.608597 3.203537,-1.875809 -0.034409,-1.414551c-1.420944,0.201477 -2.386932,0.674408 -2.147156,1.050842c0.239761,0.376434 -0.44516,0.848297 -1.521194,1.048721c-1.37085,0.255554 -1.490723,0.398697 -0.401917,0.47821c0.854935,0.062576 2.702377,-0.461258 4.104675,-1.163223zm-10.412506,-9.240143c0,-0.203598 -0.606323,-0.369019 -1.34726,-0.369019c-0.740952,0 -1.103561,0.382797 -0.804825,0.850418c0.493301,0.774078 2.152084,0.401886 2.152084,-0.4814zm-11.234039,-12.367218c0,-0.782547 -0.832321,-0.986145 -2.808487,-0.68924c-2.719101,0.408234 -2.739731,0.441116 -0.648575,1.027496c3.205505,0.898148 3.457062,0.873764 3.457062,-0.338257zm-34.33197,130.411865c0.286957,-0.277802 1.032822,-0.307526 1.656815,-0.065765c0.688858,0.267242 0.484451,0.465515 -0.522781,0.505829c-0.91095,0.036041 -1.420959,-0.161194 -1.134033,-0.440063zm15.364258,-135.084961c-1.077026,-1.950027 -1.138947,-2.5905 -0.251587,-2.5905c1.130096,0 2.822281,3.237335 1.961441,3.752686c-0.441223,0.265091 -1.210663,-0.258728 -1.709854,-1.162186zm12.918335,-25.31868c0,-0.396576 0.357697,-0.721054 0.794006,-0.721054c0.43631,0 1.408173,-0.22905 2.159927,-0.508987c0.751755,-0.278885 1.366913,-0.134674 1.366913,0.321304c0,0.455948 -0.971863,1.009476 -2.159927,1.230042c-1.188065,0.219498 -2.160919,0.075287 -2.160919,-0.321304zm7.666885,-6.321976c-1.051483,-1.253372 -0.990555,-1.347763 0.54245,-0.834518c1.659744,0.553513 1.664658,0.529114 0.126755,-0.627762c-1.474014,-1.108093 -1.352173,-1.191864 1.508423,-1.048706c1.710846,0.085892 3.112152,0.250244 3.114105,0.364777c0.005905,0.334015 -3.418747,3.559692 -3.779388,3.559692c-0.178848,0 -0.859848,-0.636246 -1.512344,-1.413483zm-0.260406,-5.878754c-1.440613,-1.913971 -1.470093,-2.1409 -0.216202,-1.674332c0.797943,0.295837 1.451416,0.173904 1.451416,-0.271469c0,-0.446411 0.43631,-0.811188 0.96991,-0.811188c0.691818,0 0.705566,0.308563 0.049133,1.074158c-1.142853,1.33609 -0.272186,2.785614 2.005661,3.337021c1.422913,0.34462 1.34726,0.431564 -0.432388,0.489899c-1.394409,0.045593 -2.751495,-0.714691 -3.82753,-2.144089zm0.509018,-5.47049c-1.351196,-1.30957 -1.263733,-2.311646 0.201447,-2.311646c1.369858,0 2.534348,2.244827 1.489761,2.870453c-0.378342,0.226929 -1.139923,-0.024384 -1.691208,-0.558807zm0.466782,-6.784332c-0.244705,-0.617126 -0.098282,-1.654175 0.326248,-2.303131c0.561111,-0.858917 0.774353,-0.553528 0.78418,1.12294c0.01474,2.500381 -0.409775,2.95105 -1.110428,1.180191z"/>
  </g>
 </g>
</svg>